<svg width="516" height="345" viewBox="0 0 516 345" fill="none" xmlns="http://www.w3.org/2000/svg">
<rect x="-81" width="597" height="345" rx="20" fill="#800909"/>
<path d="M3.375 124.5C-0.041666 124.5 -3.89583 124.167 -8.1875 123.5V115.875C-3.16667 116.625 0.687501 117 3.375 117C7.08333 117 8.9375 115.021 8.9375 111.062C8.9375 109.958 8.66667 108.917 8.125 107.937C7.60417 106.937 6.86458 106.25 5.90625 105.875C5.30208 105.646 4.46875 105.458 3.40625 105.312C2.34375 105.167 1.25 104.958 0.125 104.688C-0.979167 104.396 -2.04167 103.948 -3.0625 103.344C-6.97917 101.01 -8.9375 97.3229 -8.9375 92.2812C-8.9375 88.6771 -7.79167 85.6458 -5.5 83.1875C-3.1875 80.7292 -0.229166 79.5 3.375 79.5C6.1875 79.5 10.0417 79.7604 14.9375 80.2812V87.8125C9.875 87.2708 6.02083 87 3.375 87C2.58333 87 1.88542 87.1771 1.28125 87.5312C0.697917 87.8854 0.25 88.3437 -0.0624995 88.9062C-0.375 89.4687 -0.604166 90.0417 -0.749999 90.625C-0.874999 91.2083 -0.937499 91.7812 -0.937499 92.3437C-0.937499 94.8021 -0.104166 96.4062 1.5625 97.1562C2.10417 97.4062 3.33333 97.6875 5.25 98C7.1875 98.2917 8.75 98.75 9.9375 99.375C11.6042 100.229 12.9792 101.333 14.0625 102.687C15.1458 104.042 15.8958 105.406 16.3125 106.781C16.7292 108.156 16.9375 109.583 16.9375 111.062C16.9375 115.104 15.6875 118.354 13.1875 120.812C10.6875 123.271 7.41667 124.5 3.375 124.5ZM24.0156 80H48.0156V87.5H32.0156V98.125H44.0156V105.625H32.0156V116.5H48.0156V124H24.0156V80ZM56.0312 124V80H64.0313V116.5H82.0313V124H56.0312ZM88.0469 80H112.047V87.5H96.0469V98.375H108.047V105.875H96.0469V124H88.0469V80ZM160.891 80C167.599 80 172.484 82.4687 175.547 87.4062C176.734 89.2812 177.536 91.4062 177.953 93.7812C178.37 96.1562 178.578 98.8958 178.578 102C178.578 105.104 178.37 107.844 177.953 110.219C177.536 112.594 176.734 114.719 175.547 116.594C172.484 121.531 167.599 124 160.891 124H150.078V80H160.891ZM168.797 112.5C169.984 110.5 170.578 107 170.578 102C170.578 97 169.984 93.5 168.797 91.5C167.234 88.8333 164.818 87.5 161.547 87.5H158.078V116.5H161.547C164.818 116.5 167.234 115.167 168.797 112.5ZM184.094 80H208.094V87.5H192.094V98.125H204.094V105.625H192.094V116.5H208.094V124H184.094V80ZM227.484 124.5C224.068 124.5 220.214 124.167 215.922 123.5V115.875C220.943 116.625 224.797 117 227.484 117C231.193 117 233.047 115.021 233.047 111.062C233.047 109.958 232.776 108.917 232.234 107.937C231.714 106.937 230.974 106.25 230.016 105.875C229.411 105.646 228.578 105.458 227.516 105.312C226.453 105.167 225.359 104.958 224.234 104.688C223.13 104.396 222.068 103.948 221.047 103.344C217.13 101.01 215.172 97.3229 215.172 92.2812C215.172 88.6771 216.318 85.6458 218.609 83.1875C220.922 80.7292 223.88 79.5 227.484 79.5C230.297 79.5 234.151 79.7604 239.047 80.2812V87.8125C233.984 87.2708 230.13 87 227.484 87C226.693 87 225.995 87.1771 225.391 87.5312C224.807 87.8854 224.359 88.3437 224.047 88.9062C223.734 89.4687 223.505 90.0417 223.359 90.625C223.234 91.2083 223.172 91.7812 223.172 92.3437C223.172 94.8021 224.005 96.4062 225.672 97.1562C226.214 97.4062 227.443 97.6875 229.359 98C231.297 98.2917 232.859 98.75 234.047 99.375C235.714 100.229 237.089 101.333 238.172 102.687C239.255 104.042 240.005 105.406 240.422 106.781C240.839 108.156 241.047 109.583 241.047 111.062C241.047 115.104 239.797 118.354 237.297 120.812C234.797 123.271 231.526 124.5 227.484 124.5ZM274.125 80V87.5H264.125V124H256.125V87.5H246.125V80H274.125ZM288.141 87.5V100.25H290.078C291.87 100.25 293.172 100.167 293.984 100C295.38 99.7083 296.505 99.0104 297.359 97.9062C298.214 96.8021 298.641 95.4583 298.641 93.875C298.641 92.2917 298.214 90.9479 297.359 89.8437C296.505 88.7396 295.38 88.0417 293.984 87.75C293.151 87.5833 291.849 87.5 290.078 87.5H288.141ZM280.141 80H290.016C293.099 80 295.297 80.1562 296.609 80.4687C299.568 81.1771 301.974 82.7292 303.828 85.125C305.703 87.5 306.641 90.4167 306.641 93.875C306.641 96.4792 306.089 98.8021 304.984 100.844C303.901 102.865 302.422 104.469 300.547 105.656L307.422 124H298.922L293.109 107.719C292.484 107.74 291.453 107.75 290.016 107.75H288.141V124H280.141V80ZM328.688 108C327.479 100.146 326.021 93.0729 324.313 86.7812H324C322.313 93.0104 320.854 100.083 319.625 108H328.688ZM317.969 80H330.344C333.927 91.2083 336.771 105.875 338.875 124H330.781C330.531 121.125 330.188 118.292 329.75 115.5H318.563C318.125 118.292 317.781 121.125 317.531 124H309.438C311.542 105.875 314.385 91.2083 317.969 80ZM368.172 116.25V123.75C364.443 124.25 361.141 124.5 358.266 124.5C353.995 124.5 350.547 123.437 347.922 121.312C345.318 119.167 343.557 116.271 342.641 112.625C341.995 110.083 341.672 106.542 341.672 102C341.672 97.4583 341.995 93.9167 342.641 91.375C343.557 87.7083 345.286 84.8125 347.828 82.6875C350.37 80.5625 353.745 79.5 357.953 79.5C361.141 79.5 364.391 79.6875 367.703 80.0625V87.5625C363.536 87.1875 360.318 87 358.047 87C353.776 87 351.172 89.3958 350.234 94.1875C349.859 96.1458 349.672 98.75 349.672 102C349.672 105.25 349.859 107.854 350.234 109.812C351.172 114.604 353.849 117 358.266 117C360.661 117 363.964 116.75 368.172 116.25ZM402.188 80V87.5H392.188V124H384.188V87.5H374.188V80H402.188Z" fill="#050505"/>
<path d="M17.5625 179.594C18.4375 178.865 19.4792 178.5 20.6875 178.5C23 178.5 24.7813 179.344 26.0313 181.031C28.0104 183.677 29 187.667 29 193C29 196.687 28.6667 199.437 28 201.25C27.3125 203.146 26.1667 204.667 24.5625 205.812C22.9792 206.938 21.0625 207.5 18.8125 207.5C16.2917 207.5 14.2083 206.948 12.5625 205.844C10.9167 204.719 9.72917 203.187 9 201.25C8.58333 200.146 8.3125 199 8.1875 197.812C8.0625 196.625 8 195.031 8 193.031C8 186.677 8.44792 181.74 9.34375 178.219C10.6979 172.948 13.8021 167.5 18.6562 161.875L24.75 166.906C22.8333 169.135 21.2604 171.208 20.0313 173.125C18.8021 175.042 17.875 177.156 17.25 179.469L17.5625 179.594ZM19.9688 199.062C20.6562 198 21 195.979 21 193C21 190.021 20.6562 188 19.9688 186.938C19.5729 186.312 19.0833 186 18.5 186C17.9167 186 17.4271 186.312 17.0313 186.938C16.3438 188 16 190.021 16 193C16 195.979 16.3438 198 17.0313 199.062C17.4271 199.687 17.9167 200 18.5 200C19.0833 200 19.5729 199.687 19.9688 199.062ZM41.1406 169.219C42.849 164.698 45.8073 162.437 50.0156 162.437C54.224 162.437 57.1823 164.698 58.8906 169.219C59.2656 170.24 59.5469 171.646 59.7344 173.438C59.9219 175.229 60.026 176.865 60.0469 178.344C60.0885 179.802 60.1094 182.021 60.1094 185C60.1094 187.979 60.0885 190.208 60.0469 191.687C60.026 193.146 59.9219 194.771 59.7344 196.562C59.5469 198.354 59.2656 199.76 58.8906 200.781C57.1823 205.302 54.224 207.562 50.0156 207.562C45.8073 207.562 42.849 205.302 41.1406 200.781C40.7656 199.76 40.4844 198.354 40.2969 196.562C40.1094 194.771 39.9948 193.146 39.9531 191.687C39.9323 190.208 39.9219 187.979 39.9219 185C39.9219 182.021 39.9323 179.802 39.9531 178.344C39.9948 176.865 40.1094 175.229 40.2969 173.438C40.4844 171.646 40.7656 170.24 41.1406 169.219ZM50.0156 170.062C49.1198 170.062 48.4844 171.375 48.1094 174C47.901 175.396 47.7969 179.062 47.7969 185V188.281L51.9844 174.5C51.8385 173.271 51.599 172.229 51.2656 171.375C50.9323 170.5 50.5156 170.062 50.0156 170.062ZM48.0469 195.5C48.1927 196.729 48.4323 197.781 48.7656 198.656C49.099 199.51 49.5156 199.937 50.0156 199.937C50.9115 199.937 51.5469 198.625 51.9219 196C52.1302 194.604 52.2344 190.937 52.2344 185V181.719L48.0469 195.5ZM73.1563 169.219C74.8646 164.698 77.8229 162.437 82.0312 162.437C86.2396 162.437 89.1979 164.698 90.9063 169.219C91.2813 170.24 91.5625 171.646 91.75 173.438C91.9375 175.229 92.0417 176.865 92.0625 178.344C92.1042 179.802 92.125 182.021 92.125 185C92.125 187.979 92.1042 190.208 92.0625 191.687C92.0417 193.146 91.9375 194.771 91.75 196.562C91.5625 198.354 91.2813 199.76 90.9063 200.781C89.1979 205.302 86.2396 207.562 82.0312 207.562C77.8229 207.562 74.8646 205.302 73.1563 200.781C72.7813 199.76 72.5 198.354 72.3125 196.562C72.125 194.771 72.0104 193.146 71.9688 191.687C71.9479 190.208 71.9375 187.979 71.9375 185C71.9375 182.021 71.9479 179.802 71.9688 178.344C72.0104 176.865 72.125 175.229 72.3125 173.438C72.5 171.646 72.7813 170.24 73.1563 169.219ZM82.0312 170.062C81.1354 170.062 80.5 171.375 80.125 174C79.9167 175.396 79.8125 179.062 79.8125 185V188.281L84 174.5C83.8542 173.271 83.6146 172.229 83.2813 171.375C82.9479 170.5 82.5312 170.062 82.0312 170.062ZM80.0625 195.5C80.2083 196.729 80.4479 197.781 80.7813 198.656C81.1146 199.51 81.5312 199.937 82.0312 199.937C82.9271 199.937 83.5625 198.625 83.9375 196C84.1458 194.604 84.25 190.937 84.25 185V181.719L80.0625 195.5ZM145.781 207.5C143.385 207.5 140.146 207.271 136.063 206.812V199.312C139.958 199.771 143.198 200 145.781 200C146.948 200 147.781 199.687 148.281 199.062C148.802 198.437 149.062 197.792 149.062 197.125C149.062 196.437 148.906 195.875 148.594 195.437C148.281 194.979 147.865 194.698 147.344 194.594C146.969 194.51 146.313 194.417 145.375 194.312C144.438 194.187 143.563 194.031 142.75 193.844C141.958 193.635 141.177 193.333 140.406 192.938C138.969 192.188 137.771 191.083 136.813 189.625C135.854 188.167 135.375 186.469 135.375 184.531C135.375 183.615 135.51 182.698 135.781 181.781C136.052 180.844 136.469 179.938 137.031 179.062C137.615 178.188 138.312 177.417 139.125 176.75C139.938 176.062 140.927 175.521 142.094 175.125C143.281 174.708 144.563 174.5 145.938 174.5C148.25 174.5 151.521 174.719 155.75 175.156V182.656C151.479 182.219 148.208 182 145.938 182C145.063 182 144.417 182.281 144 182.844C143.583 183.385 143.375 183.927 143.375 184.469C143.375 185.323 143.573 186 143.969 186.5C144.365 186.979 144.854 187.26 145.438 187.344C145.708 187.385 146.229 187.458 147 187.562C147.792 187.646 148.406 187.729 148.844 187.812C149.281 187.896 149.833 188.042 150.5 188.25C151.188 188.438 151.823 188.708 152.406 189.062C152.99 189.396 153.552 189.823 154.094 190.344C156.073 192.198 157.063 194.438 157.063 197.062C157.063 198.396 156.823 199.677 156.344 200.906C155.865 202.135 155.177 203.25 154.281 204.25C153.385 205.229 152.198 206.021 150.719 206.625C149.26 207.208 147.615 207.5 145.781 207.5ZM178.078 174.5C180.495 174.5 182.557 175.094 184.266 176.281C185.974 177.448 187.193 178.948 187.922 180.781C188.276 181.677 188.536 182.729 188.703 183.938C188.891 185.146 188.995 186.219 189.016 187.156C189.057 188.073 189.078 189.354 189.078 191V194.75H175.109C175.109 196.458 175.266 197.656 175.578 198.344C176.12 199.448 177.161 200 178.703 200C180.974 200 184.099 199.792 188.078 199.375V206.844C184.286 207.281 181.161 207.5 178.703 207.5C176.12 207.5 173.943 206.896 172.172 205.688C170.401 204.479 169.12 202.906 168.328 200.969C167.786 199.656 167.443 198.25 167.297 196.75C167.151 195.25 167.078 193.333 167.078 191C167.078 188.604 167.141 186.635 167.266 185.094C167.411 183.531 167.734 182.094 168.234 180.781C168.922 178.927 170.12 177.417 171.828 176.25C173.557 175.083 175.641 174.5 178.078 174.5ZM178.078 182C177.724 182 177.401 182.042 177.109 182.125C176.818 182.187 176.568 182.323 176.359 182.531C176.172 182.719 176.005 182.896 175.859 183.062C175.714 183.208 175.589 183.469 175.484 183.844C175.401 184.198 175.328 184.479 175.266 184.688C175.224 184.896 175.182 185.25 175.141 185.75C175.12 186.229 175.109 186.573 175.109 186.781C175.109 186.969 175.099 187.333 175.078 187.875H181.078C181.036 185.729 180.87 184.312 180.578 183.625C180.161 182.542 179.328 182 178.078 182ZM199.312 196.75C199.167 195.25 199.094 193.333 199.094 191C199.094 188.667 199.167 186.75 199.312 185.25C199.479 183.75 199.854 182.344 200.438 181.031C202.333 176.677 205.865 174.5 211.031 174.5C213.385 174.5 216.302 174.687 219.781 175.062V182.562C216.26 182.187 213.344 182 211.031 182C210.135 182 209.427 182.24 208.906 182.719C208.385 183.198 207.958 183.927 207.625 184.906C207.271 185.99 207.094 188.021 207.094 191C207.094 193.979 207.271 196.01 207.625 197.094C207.958 198.073 208.385 198.802 208.906 199.281C209.427 199.76 210.135 200 211.031 200C213.469 200 216.49 199.729 220.094 199.187V206.687C216.51 207.229 213.49 207.5 211.031 207.5C205.865 207.5 202.333 205.323 200.438 200.969C199.854 199.656 199.479 198.25 199.312 196.75Z" fill="#050505"/>
<path d="M-31.9062 281.188C-30.8854 280.188 -29.5833 279.688 -28 279.688C-26.4167 279.688 -25.125 280.188 -24.125 281.188C-23.1042 282.188 -22.5937 283.49 -22.5937 285.094C-22.5937 286.698 -23.1042 288 -24.125 289C-25.125 290 -26.4167 290.5 -28 290.5C-29.5833 290.5 -30.8854 290 -31.9062 289C-32.9062 288 -33.4062 286.698 -33.4062 285.094C-33.4062 283.49 -32.9062 282.188 -31.9062 281.188ZM-24.125 274H-31.875L-32.4375 246H-23.5625L-24.125 274ZM0.109376 281.188C1.13021 280.188 2.43229 279.688 4.01562 279.688C5.59896 279.688 6.89063 280.188 7.89063 281.188C8.91146 282.188 9.42188 283.49 9.42188 285.094C9.42188 286.698 8.91146 288 7.89063 289C6.89063 290 5.59896 290.5 4.01562 290.5C2.43229 290.5 1.13021 290 0.109376 289C-0.890624 288 -1.39062 286.698 -1.39062 285.094C-1.39062 283.49 -0.890624 282.188 0.109376 281.188ZM7.89063 274H0.140625L-0.421875 246H8.45313L7.89063 274ZM32.125 281.188C33.1458 280.188 34.4479 279.688 36.0312 279.688C37.6146 279.688 38.9063 280.188 39.9063 281.188C40.9271 282.188 41.4375 283.49 41.4375 285.094C41.4375 286.698 40.9271 288 39.9063 289C38.9063 290 37.6146 290.5 36.0312 290.5C34.4479 290.5 33.1458 290 32.125 289C31.125 288 30.625 286.698 30.625 285.094C30.625 283.49 31.125 282.188 32.125 281.188ZM39.9063 274H32.1563L31.5938 246H40.4688L39.9063 274ZM64.1406 281.188C65.1615 280.188 66.4635 279.688 68.0469 279.688C69.6302 279.688 70.9219 280.188 71.9219 281.188C72.9427 282.188 73.4531 283.49 73.4531 285.094C73.4531 286.698 72.9427 288 71.9219 289C70.9219 290 69.6302 290.5 68.0469 290.5C66.4635 290.5 65.1615 290 64.1406 289C63.1406 288 62.6406 286.698 62.6406 285.094C62.6406 283.49 63.1406 282.188 64.1406 281.188ZM71.9219 274H64.1719L63.6094 246H72.4844L71.9219 274ZM96.1563 281.188C97.1771 280.188 98.4792 279.688 100.062 279.688C101.646 279.688 102.938 280.188 103.938 281.188C104.958 282.188 105.469 283.49 105.469 285.094C105.469 286.698 104.958 288 103.938 289C102.938 290 101.646 290.5 100.062 290.5C98.4792 290.5 97.1771 290 96.1563 289C95.1563 288 94.6563 286.698 94.6563 285.094C94.6563 283.49 95.1563 282.188 96.1563 281.188ZM103.938 274H96.1875L95.625 246H104.5L103.938 274ZM128.172 281.188C129.193 280.188 130.495 279.688 132.078 279.688C133.661 279.688 134.953 280.188 135.953 281.188C136.974 282.188 137.484 283.49 137.484 285.094C137.484 286.698 136.974 288 135.953 289C134.953 290 133.661 290.5 132.078 290.5C130.495 290.5 129.193 290 128.172 289C127.172 288 126.672 286.698 126.672 285.094C126.672 283.49 127.172 282.188 128.172 281.188ZM135.953 274H128.203L127.641 246H136.516L135.953 274ZM160.188 281.188C161.208 280.188 162.51 279.688 164.094 279.688C165.677 279.688 166.969 280.188 167.969 281.188C168.99 282.188 169.5 283.49 169.5 285.094C169.5 286.698 168.99 288 167.969 289C166.969 290 165.677 290.5 164.094 290.5C162.51 290.5 161.208 290 160.188 289C159.188 288 158.688 286.698 158.688 285.094C158.688 283.49 159.188 282.188 160.188 281.188ZM167.969 274H160.219L159.656 246H168.531L167.969 274ZM192.203 281.188C193.224 280.188 194.526 279.688 196.109 279.688C197.693 279.688 198.984 280.188 199.984 281.188C201.005 282.188 201.516 283.49 201.516 285.094C201.516 286.698 201.005 288 199.984 289C198.984 290 197.693 290.5 196.109 290.5C194.526 290.5 193.224 290 192.203 289C191.203 288 190.703 286.698 190.703 285.094C190.703 283.49 191.203 282.188 192.203 281.188ZM199.984 274H192.234L191.672 246H200.547L199.984 274ZM224.219 281.188C225.24 280.188 226.542 279.688 228.125 279.688C229.708 279.688 231 280.188 232 281.188C233.021 282.188 233.531 283.49 233.531 285.094C233.531 286.698 233.021 288 232 289C231 290 229.708 290.5 228.125 290.5C226.542 290.5 225.24 290 224.219 289C223.219 288 222.719 286.698 222.719 285.094C222.719 283.49 223.219 282.188 224.219 281.188ZM232 274H224.25L223.688 246H232.563L232 274ZM256.234 281.188C257.255 280.188 258.557 279.688 260.141 279.688C261.724 279.688 263.016 280.188 264.016 281.188C265.036 282.188 265.547 283.49 265.547 285.094C265.547 286.698 265.036 288 264.016 289C263.016 290 261.724 290.5 260.141 290.5C258.557 290.5 257.255 290 256.234 289C255.234 288 254.734 286.698 254.734 285.094C254.734 283.49 255.234 282.188 256.234 281.188ZM264.016 274H256.266L255.703 246H264.578L264.016 274ZM288.25 281.188C289.271 280.188 290.573 279.688 292.156 279.688C293.74 279.688 295.031 280.188 296.031 281.188C297.052 282.188 297.563 283.49 297.563 285.094C297.563 286.698 297.052 288 296.031 289C295.031 290 293.74 290.5 292.156 290.5C290.573 290.5 289.271 290 288.25 289C287.25 288 286.75 286.698 286.75 285.094C286.75 283.49 287.25 282.188 288.25 281.188ZM296.031 274H288.281L287.719 246H296.594L296.031 274ZM320.266 281.188C321.286 280.188 322.589 279.688 324.172 279.688C325.755 279.688 327.047 280.188 328.047 281.188C329.068 282.188 329.578 283.49 329.578 285.094C329.578 286.698 329.068 288 328.047 289C327.047 290 325.755 290.5 324.172 290.5C322.589 290.5 321.286 290 320.266 289C319.266 288 318.766 286.698 318.766 285.094C318.766 283.49 319.266 282.188 320.266 281.188ZM328.047 274H320.297L319.734 246H328.609L328.047 274ZM352.281 281.188C353.302 280.188 354.604 279.688 356.188 279.688C357.771 279.688 359.063 280.188 360.063 281.188C361.083 282.188 361.594 283.49 361.594 285.094C361.594 286.698 361.083 288 360.063 289C359.063 290 357.771 290.5 356.188 290.5C354.604 290.5 353.302 290 352.281 289C351.281 288 350.781 286.698 350.781 285.094C350.781 283.49 351.281 282.188 352.281 281.188ZM360.063 274H352.313L351.75 246H360.625L360.063 274ZM384.297 281.188C385.318 280.188 386.62 279.688 388.203 279.688C389.786 279.688 391.078 280.188 392.078 281.188C393.099 282.188 393.609 283.49 393.609 285.094C393.609 286.698 393.099 288 392.078 289C391.078 290 389.786 290.5 388.203 290.5C386.62 290.5 385.318 290 384.297 289C383.297 288 382.797 286.698 382.797 285.094C382.797 283.49 383.297 282.188 384.297 281.188ZM392.078 274H384.328L383.766 246H392.641L392.078 274ZM416.313 281.188C417.333 280.188 418.635 279.688 420.219 279.688C421.802 279.688 423.094 280.188 424.094 281.188C425.115 282.188 425.625 283.49 425.625 285.094C425.625 286.698 425.115 288 424.094 289C423.094 290 421.802 290.5 420.219 290.5C418.635 290.5 417.333 290 416.313 289C415.313 288 414.813 286.698 414.813 285.094C414.813 283.49 415.313 282.188 416.313 281.188ZM424.094 274H416.344L415.781 246H424.656L424.094 274Z" fill="#050505"/>
<rect x="-10" y="20" width="502" height="301" rx="16" stroke="black" stroke-width="8"/>
</svg>
