<svg width="686" height="916" viewBox="0 0 686 916" fill="none" xmlns="http://www.w3.org/2000/svg">
<rect x="2" y="2" width="674" height="912" rx="18" fill="black" stroke="white" stroke-width="4"/>
<path d="M2 19C2 9.05887 10.0589 1 20 1H659C668.941 1 677 9.05888 677 19V54H2V19Z" fill="white"/>
<path d="M62 169H78V199H62V169ZM78.0078 169H94.0078V199H78.0078V169ZM94.0156 169H110.016V199H94.0156V169ZM110.023 169H126.023V199H110.023V169ZM126.031 169H142.031V199H126.031V169ZM142.039 169H158.039V199H142.039V169ZM158.047 169H174.047V199H158.047V169ZM174.055 169H190.055V199H174.055V169ZM190.062 169H206.063V199H190.062V169ZM206.07 169H222.07V199H206.07V169ZM222.078 169H238.078V199H222.078V169ZM238.086 169H254.086V199H238.086V169ZM254.094 169H270.094V199H254.094V169ZM270.102 169H286.102V199H270.102V169ZM286.109 169H302.109V199H286.109V169ZM302.117 169H318.117V199H302.117V169ZM318.125 169H334.125V199H318.125V169ZM334.133 169H350.133V199H334.133V169ZM350.141 169H366.141V199H350.141V169ZM366.148 169H382.148V199H366.148V169ZM382.156 169H398.156V199H382.156V169ZM398.164 169H414.164V199H398.164V169ZM414.172 169H430.172V199H414.172V169ZM430.18 169H446.18V199H430.18V169ZM446.188 169H462.188V199H446.188V169ZM462.195 169H478.195V199H462.195V169ZM478.203 169H494.203V199H478.203V169ZM494.211 169H510.211V199H494.211V169ZM510.219 169H526.219V199H510.219V169ZM526.227 169H542.227V199H526.227V169ZM542.234 169H558.234V199H542.234V169ZM558.242 169H574.242V199H558.242V169ZM574.25 169H590.25V199H574.25V169ZM590.258 169H606.258V199H590.258V169ZM606.266 169H622.266V199H606.266V169ZM62 201H78V231H62V201ZM78.0078 201H94.0078V231H78.0078V201ZM94.0156 201H110.016V231H94.0156V201ZM110.023 201H126.023V231H110.023V201ZM126.031 201H142.031V231H126.031V201ZM142.039 201H158.039V231H142.039V201ZM158.047 201H174.047V231H158.047V201ZM174.055 201H190.055V231H174.055V201ZM190.062 201H206.063V231H190.062V201ZM206.07 201H222.07V231H206.07V201ZM222.078 201H238.078V231H222.078V201ZM446.188 201H462.188V231H446.188V201ZM462.195 201H478.195V231H462.195V201ZM478.203 201H494.203V231H478.203V201ZM494.211 201H510.211V231H494.211V201ZM510.219 201H526.219V231H510.219V201ZM526.227 201H542.227V231H526.227V201ZM542.234 201H558.234V231H542.234V201ZM558.242 201H574.242V231H558.242V201ZM574.25 201H590.25V231H574.25V201ZM590.258 201H606.258V231H590.258V201ZM606.266 201H622.266V231H606.266V201ZM62 233H78V263H62V233ZM78.0078 233H94.0078V263H78.0078V233ZM94.0156 233H110.016V263H94.0156V233ZM110.023 233H126.023V263H110.023V233ZM126.031 233H142.031V263H126.031V233ZM142.039 233H158.039V263H142.039V233ZM158.047 233H174.047V263H158.047V233ZM174.055 233H190.055V263H174.055V233ZM494.211 233H510.211V263H494.211V233ZM510.219 233H526.219V263H510.219V233ZM526.227 233H542.227V263H526.227V233ZM542.234 233H558.234V263H542.234V233ZM558.242 233H574.242V263H558.242V233ZM574.25 233H590.25V263H574.25V233ZM590.258 233H606.258V263H590.258V233ZM606.266 233H622.266V263H606.266V233ZM62 265H78V295H62V265ZM78.0078 265H94.0078V295H78.0078V265ZM94.0156 265H110.016V295H94.0156V265ZM110.023 265H126.023V295H110.023V265ZM126.031 265H142.031V295H126.031V265ZM142.039 265H158.039V295H142.039V265ZM158.047 265H174.047V295H158.047V265ZM510.219 265H526.219V295H510.219V265ZM526.227 265H542.227V295H526.227V265ZM542.234 265H558.234V295H542.234V265ZM558.242 265H574.242V295H558.242V265ZM574.25 265H590.25V295H574.25V265ZM590.258 265H606.258V295H590.258V265ZM606.266 265H622.266V295H606.266V265ZM62 297H78V327H62V297ZM78.0078 297H94.0078V327H78.0078V297ZM94.0156 297H110.016V327H94.0156V297ZM110.023 297H126.023V327H110.023V297ZM126.031 297H142.031V327H126.031V297ZM142.039 297H158.039V327H142.039V297ZM526.227 297H542.227V327H526.227V297ZM542.234 297H558.234V327H542.234V297ZM558.242 297H574.242V327H558.242V297ZM574.25 297H590.25V327H574.25V297ZM590.258 297H606.258V327H590.258V297ZM606.266 297H622.266V327H606.266V297ZM62 329H78V359H62V329ZM78.0078 329H94.0078V359H78.0078V329ZM94.0156 329H110.016V359H94.0156V329ZM110.023 329H126.023V359H110.023V329ZM126.031 329H142.031V359H126.031V329ZM142.039 329H158.039V359H142.039V329ZM526.227 329H542.227V359H526.227V329ZM542.234 329H558.234V359H542.234V329ZM558.242 329H574.242V359H558.242V329ZM574.25 329H590.25V359H574.25V329ZM590.258 329H606.258V359H590.258V329ZM606.266 329H622.266V359H606.266V329ZM62 361H78V391H62V361ZM78.0078 361H94.0078V391H78.0078V361ZM94.0156 361H110.016V391H94.0156V361ZM110.023 361H126.023V391H110.023V361ZM126.031 361H142.031V391H126.031V361ZM142.039 361H158.039V391H142.039V361ZM526.227 361H542.227V391H526.227V361ZM542.234 361H558.234V391H542.234V361ZM558.242 361H574.242V391H558.242V361ZM574.25 361H590.25V391H574.25V361ZM590.258 361H606.258V391H590.258V361ZM606.266 361H622.266V391H606.266V361ZM62 393H78V423H62V393ZM78.0078 393H94.0078V423H78.0078V393ZM94.0156 393H110.016V423H94.0156V393ZM110.023 393H126.023V423H110.023V393ZM126.031 393H142.031V423H126.031V393ZM142.039 393H158.039V423H142.039V393ZM526.227 393H542.227V423H526.227V393ZM542.234 393H558.234V423H542.234V393ZM558.242 393H574.242V423H558.242V393ZM574.25 393H590.25V423H574.25V393ZM590.258 393H606.258V423H590.258V393ZM606.266 393H622.266V423H606.266V393ZM62 425H78V455H62V425ZM78.0078 425H94.0078V455H78.0078V425ZM94.0156 425H110.016V455H94.0156V425ZM110.023 425H126.023V455H110.023V425ZM126.031 425H142.031V455H126.031V425ZM142.039 425H158.039V455H142.039V425ZM206.07 425H222.07V455H206.07V425ZM222.078 425H238.078V455H222.078V425ZM238.086 425H254.086V455H238.086V425ZM254.094 425H270.094V455H254.094V425ZM270.102 425H286.102V455H270.102V425ZM286.109 425H302.109V455H286.109V425ZM382.156 425H398.156V455H382.156V425ZM398.164 425H414.164V455H398.164V425ZM414.172 425H430.172V455H414.172V425ZM430.18 425H446.18V455H430.18V425ZM446.188 425H462.188V455H446.188V425ZM462.195 425H478.195V455H462.195V425ZM526.227 425H542.227V455H526.227V425ZM542.234 425H558.234V455H542.234V425ZM558.242 425H574.242V455H558.242V425ZM574.25 425H590.25V455H574.25V425ZM590.258 425H606.258V455H590.258V425ZM606.266 425H622.266V455H606.266V425ZM62 457H78V487H62V457ZM78.0078 457H94.0078V487H78.0078V457ZM94.0156 457H110.016V487H94.0156V457ZM110.023 457H126.023V487H110.023V457ZM126.031 457H142.031V487H126.031V457ZM142.039 457H158.039V487H142.039V457ZM158.047 457H174.047V487H158.047V457ZM222.078 457H238.078V487H222.078V457ZM238.086 457H254.086V487H238.086V457ZM254.094 457H270.094V487H254.094V457ZM414.172 457H430.172V487H414.172V457ZM430.18 457H446.18V487H430.18V457ZM446.188 457H462.188V487H446.188V457ZM510.219 457H526.219V487H510.219V457ZM526.227 457H542.227V487H526.227V457ZM542.234 457H558.234V487H542.234V457ZM558.242 457H574.242V487H558.242V457ZM574.25 457H590.25V487H574.25V457ZM590.258 457H606.258V487H590.258V457ZM606.266 457H622.266V487H606.266V457ZM62 489H78V519H62V489ZM78.0078 489H94.0078V519H78.0078V489ZM94.0156 489H110.016V519H94.0156V489ZM110.023 489H126.023V519H110.023V489ZM126.031 489H142.031V519H126.031V489ZM142.039 489H158.039V519H142.039V489ZM334.133 489H350.133V519H334.133V489ZM526.227 489H542.227V519H526.227V489ZM542.234 489H558.234V519H542.234V489ZM558.242 489H574.242V519H558.242V489ZM574.25 489H590.25V519H574.25V489ZM590.258 489H606.258V519H590.258V489ZM606.266 489H622.266V519H606.266V489ZM62 521H78V551H62V521ZM78.0078 521H94.0078V551H78.0078V521ZM94.0156 521H110.016V551H94.0156V521ZM110.023 521H126.023V551H110.023V521ZM126.031 521H142.031V551H126.031V521ZM142.039 521H158.039V551H142.039V521ZM334.133 521H350.133V551H334.133V521ZM526.227 521H542.227V551H526.227V521ZM542.234 521H558.234V551H542.234V521ZM558.242 521H574.242V551H558.242V521ZM574.25 521H590.25V551H574.25V521ZM590.258 521H606.258V551H590.258V521ZM606.266 521H622.266V551H606.266V521ZM62 553H78V583H62V553ZM78.0078 553H94.0078V583H78.0078V553ZM94.0156 553H110.016V583H94.0156V553ZM110.023 553H126.023V583H110.023V553ZM126.031 553H142.031V583H126.031V553ZM142.039 553H158.039V583H142.039V553ZM158.047 553H174.047V583H158.047V553ZM174.055 553H190.055V583H174.055V553ZM238.086 553H254.086V583H238.086V553ZM254.094 553H270.094V583H254.094V553ZM414.172 553H430.172V583H414.172V553ZM430.18 553H446.18V583H430.18V553ZM494.211 553H510.211V583H494.211V553ZM510.219 553H526.219V583H510.219V553ZM526.227 553H542.227V583H526.227V553ZM542.234 553H558.234V583H542.234V553ZM558.242 553H574.242V583H558.242V553ZM574.25 553H590.25V583H574.25V553ZM590.258 553H606.258V583H590.258V553ZM606.266 553H622.266V583H606.266V553ZM62 585H78V615H62V585ZM78.0078 585H94.0078V615H78.0078V585ZM94.0156 585H110.016V615H94.0156V585ZM110.023 585H126.023V615H110.023V585ZM126.031 585H142.031V615H126.031V585ZM142.039 585H158.039V615H142.039V585ZM158.047 585H174.047V615H158.047V585ZM174.055 585H190.055V615H174.055V585ZM190.062 585H206.063V615H190.062V585ZM254.094 585H270.094V615H254.094V585ZM414.172 585H430.172V615H414.172V585ZM478.203 585H494.203V615H478.203V585ZM494.211 585H510.211V615H494.211V585ZM510.219 585H526.219V615H510.219V585ZM526.227 585H542.227V615H526.227V585ZM542.234 585H558.234V615H542.234V585ZM558.242 585H574.242V615H558.242V585ZM574.25 585H590.25V615H574.25V585ZM590.258 585H606.258V615H590.258V585ZM606.266 585H622.266V615H606.266V585ZM62 617H78V647H62V617ZM78.0078 617H94.0078V647H78.0078V617ZM94.0156 617H110.016V647H94.0156V617ZM110.023 617H126.023V647H110.023V617ZM126.031 617H142.031V647H126.031V617ZM142.039 617H158.039V647H142.039V617ZM158.047 617H174.047V647H158.047V617ZM174.055 617H190.055V647H174.055V617ZM494.211 617H510.211V647H494.211V617ZM510.219 617H526.219V647H510.219V617ZM526.227 617H542.227V647H526.227V617ZM542.234 617H558.234V647H542.234V617ZM558.242 617H574.242V647H558.242V617ZM574.25 617H590.25V647H574.25V617ZM590.258 617H606.258V647H590.258V617ZM606.266 617H622.266V647H606.266V617ZM62 649H78V679H62V649ZM78.0078 649H94.0078V679H78.0078V649ZM94.0156 649H110.016V679H94.0156V649ZM110.023 649H126.023V679H110.023V649ZM126.031 649H142.031V679H126.031V649ZM142.039 649H158.039V679H142.039V649ZM158.047 649H174.047V679H158.047V649ZM174.055 649H190.055V679H174.055V649ZM190.062 649H206.063V679H190.062V649ZM478.203 649H494.203V679H478.203V649ZM494.211 649H510.211V679H494.211V649ZM510.219 649H526.219V679H510.219V649ZM526.227 649H542.227V679H526.227V649ZM542.234 649H558.234V679H542.234V649ZM558.242 649H574.242V679H558.242V649ZM574.25 649H590.25V679H574.25V649ZM590.258 649H606.258V679H590.258V649ZM606.266 649H622.266V679H606.266V649ZM62 681H78V711H62V681ZM78.0078 681H94.0078V711H78.0078V681ZM94.0156 681H110.016V711H94.0156V681ZM110.023 681H126.023V711H110.023V681ZM126.031 681H142.031V711H126.031V681ZM142.039 681H158.039V711H142.039V681ZM158.047 681H174.047V711H158.047V681ZM174.055 681H190.055V711H174.055V681ZM190.062 681H206.063V711H190.062V681ZM206.07 681H222.07V711H206.07V681ZM222.078 681H238.078V711H222.078V681ZM446.188 681H462.188V711H446.188V681ZM462.195 681H478.195V711H462.195V681ZM478.203 681H494.203V711H478.203V681ZM494.211 681H510.211V711H494.211V681ZM510.219 681H526.219V711H510.219V681ZM526.227 681H542.227V711H526.227V681ZM542.234 681H558.234V711H542.234V681ZM558.242 681H574.242V711H558.242V681ZM574.25 681H590.25V711H574.25V681ZM590.258 681H606.258V711H590.258V681ZM606.266 681H622.266V711H606.266V681ZM62 713H78V743H62V713ZM78.0078 713H94.0078V743H78.0078V713ZM94.0156 713H110.016V743H94.0156V713ZM110.023 713H126.023V743H110.023V713ZM126.031 713H142.031V743H126.031V713ZM142.039 713H158.039V743H142.039V713ZM158.047 713H174.047V743H158.047V713ZM174.055 713H190.055V743H174.055V713ZM190.062 713H206.063V743H190.062V713ZM206.07 713H222.07V743H206.07V713ZM222.078 713H238.078V743H222.078V713ZM238.086 713H254.086V743H238.086V713ZM254.094 713H270.094V743H254.094V713ZM270.102 713H286.102V743H270.102V713ZM398.164 713H414.164V743H398.164V713ZM414.172 713H430.172V743H414.172V713ZM430.18 713H446.18V743H430.18V713ZM446.188 713H462.188V743H446.188V713ZM462.195 713H478.195V743H462.195V713ZM478.203 713H494.203V743H478.203V713ZM494.211 713H510.211V743H494.211V713ZM510.219 713H526.219V743H510.219V713ZM526.227 713H542.227V743H526.227V713ZM542.234 713H558.234V743H542.234V713ZM558.242 713H574.242V743H558.242V713ZM574.25 713H590.25V743H574.25V713ZM590.258 713H606.258V743H590.258V713ZM606.266 713H622.266V743H606.266V713ZM62 745H78V775H62V745ZM78.0078 745H94.0078V775H78.0078V745ZM94.0156 745H110.016V775H94.0156V745ZM110.023 745H126.023V775H110.023V745ZM126.031 745H142.031V775H126.031V745ZM142.039 745H158.039V775H142.039V745ZM158.047 745H174.047V775H158.047V745ZM174.055 745H190.055V775H174.055V745ZM190.062 745H206.063V775H190.062V745ZM206.07 745H222.07V775H206.07V745ZM222.078 745H238.078V775H222.078V745ZM238.086 745H254.086V775H238.086V745ZM254.094 745H270.094V775H254.094V745ZM270.102 745H286.102V775H270.102V745ZM286.109 745H302.109V775H286.109V745ZM302.117 745H318.117V775H302.117V745ZM318.125 745H334.125V775H318.125V745ZM334.133 745H350.133V775H334.133V745ZM350.141 745H366.141V775H350.141V745ZM366.148 745H382.148V775H366.148V745ZM382.156 745H398.156V775H382.156V745ZM398.164 745H414.164V775H398.164V745ZM414.172 745H430.172V775H414.172V745ZM430.18 745H446.18V775H430.18V745ZM446.188 745H462.188V775H446.188V745ZM462.195 745H478.195V775H462.195V745ZM478.203 745H494.203V775H478.203V745ZM494.211 745H510.211V775H494.211V745ZM510.219 745H526.219V775H510.219V745ZM526.227 745H542.227V775H526.227V745ZM542.234 745H558.234V775H542.234V745ZM558.242 745H574.242V775H558.242V745ZM574.25 745H590.25V775H574.25V745ZM590.258 745H606.258V775H590.258V745ZM614.266 767.25H618.266V771H614.266V767.25ZM626.273 767.25H630.273V771H626.273V767.25ZM71 810.562H80V819H71V810.562ZM95.0117 810.562H104.012V819H95.0117V810.562ZM119.023 810.562H128.023V819H119.023V810.562ZM143.035 810.562H152.035V819H143.035V810.562ZM167.047 810.562H176.047V819H167.047V810.562ZM191.059 810.562H200.059V819H191.059V810.562ZM224.656 823.617L208.93 783.398L214.484 781.383L230.211 821.602L224.656 823.617ZM248.668 823.617L232.941 783.398L238.496 781.383L254.223 821.602L248.668 823.617ZM272.68 823.617L256.953 783.398L262.508 781.383L278.234 821.602L272.68 823.617ZM296.691 823.617L280.965 783.398L286.52 781.383L302.246 821.602L296.691 823.617ZM320.703 823.617L304.977 783.398L310.531 781.383L326.258 821.602L320.703 823.617ZM344.715 823.617L328.988 783.398L334.543 781.383L350.27 821.602L344.715 823.617ZM368.727 823.617L353 783.398L358.555 781.383L374.281 821.602L368.727 823.617Z" fill="#800909"/>
<path d="M466 34H503" stroke="black" stroke-width="6"/>
<path d="M625 17L648 39" stroke="black" stroke-width="6"/>
<path d="M646.668 16.6191L624.843 39.2884" stroke="black" stroke-width="6"/>
<path d="M548 21.56V17H572V21.56M548 21.56V36H572V21.56M548 21.56H572" stroke="black" stroke-width="6"/>
</svg>
