<svg width="598" height="215" viewBox="0 0 598 215" fill="none" xmlns="http://www.w3.org/2000/svg">
<rect x="2" y="2" width="594" height="211" rx="18" fill="black" stroke="#800909" stroke-width="4"/>
<rect x="14" y="15" width="570" height="185" rx="7" fill="#800909" stroke="#800909" stroke-width="4"/>
<path d="M76 64L147 135" stroke="black" stroke-width="12"/>
<path d="M145.527 65L76.1681 136.698" stroke="black" stroke-width="12"/>
<path d="M226.898 110C225.992 104.109 224.898 98.8047 223.617 94.0859H223.383C222.117 98.7578 221.023 104.062 220.102 110H226.898ZM218.859 89H228.141C230.828 97.4062 232.961 108.406 234.539 122H228.469C228.281 119.844 228.023 117.719 227.695 115.625H219.305C218.977 117.719 218.719 119.844 218.531 122H212.461C214.039 108.406 216.172 97.4062 218.859 89ZM256.512 116.187V121.812C253.715 122.188 251.238 122.375 249.082 122.375C245.879 122.375 243.293 121.578 241.324 119.984C239.371 118.375 238.051 116.203 237.363 113.469C236.879 111.562 236.637 108.906 236.637 105.5C236.637 102.094 236.879 99.4375 237.363 97.5312C238.051 94.7812 239.348 92.6094 241.254 91.0156C243.16 89.4219 245.691 88.625 248.848 88.625C251.238 88.625 253.676 88.7656 256.16 89.0469V94.6719C253.035 94.3906 250.621 94.25 248.918 94.25C245.715 94.25 243.762 96.0469 243.059 99.6406C242.777 101.109 242.637 103.062 242.637 105.5C242.637 107.937 242.777 109.891 243.059 111.359C243.762 114.953 245.77 116.75 249.082 116.75C250.879 116.75 253.355 116.562 256.512 116.187ZM280.523 116.187V121.812C277.727 122.188 275.25 122.375 273.094 122.375C269.891 122.375 267.305 121.578 265.336 119.984C263.383 118.375 262.063 116.203 261.375 113.469C260.891 111.562 260.648 108.906 260.648 105.5C260.648 102.094 260.891 99.4375 261.375 97.5312C262.063 94.7812 263.359 92.6094 265.266 91.0156C267.172 89.4219 269.703 88.625 272.859 88.625C275.25 88.625 277.688 88.7656 280.172 89.0469V94.6719C277.047 94.3906 274.633 94.25 272.93 94.25C269.727 94.25 267.773 96.0469 267.07 99.6406C266.789 101.109 266.648 103.062 266.648 105.5C266.648 107.937 266.789 109.891 267.07 111.359C267.773 114.953 269.781 116.75 273.094 116.75C274.891 116.75 277.367 116.562 280.523 116.187ZM286.535 89H304.535V94.625H292.535V102.594H301.535V108.219H292.535V116.375H304.535V122H286.535V89ZM319.078 122.375C316.516 122.375 313.625 122.125 310.406 121.625V115.906C314.172 116.469 317.063 116.75 319.078 116.75C321.859 116.75 323.25 115.266 323.25 112.297C323.25 111.469 323.047 110.687 322.641 109.953C322.25 109.203 321.695 108.687 320.977 108.406C320.523 108.234 319.898 108.094 319.102 107.984C318.305 107.875 317.484 107.719 316.641 107.516C315.813 107.297 315.016 106.961 314.25 106.508C311.313 104.758 309.844 101.992 309.844 98.2109C309.844 95.5078 310.703 93.2344 312.422 91.3906C314.156 89.5469 316.375 88.625 319.078 88.625C321.188 88.625 324.078 88.8203 327.75 89.2109V94.8594C323.953 94.4531 321.063 94.25 319.078 94.25C318.484 94.25 317.961 94.3828 317.508 94.6484C317.07 94.9141 316.734 95.2578 316.5 95.6797C316.266 96.1016 316.094 96.5312 315.984 96.9688C315.891 97.4062 315.844 97.8359 315.844 98.2578C315.844 100.102 316.469 101.305 317.719 101.867C318.125 102.055 319.047 102.266 320.484 102.5C321.938 102.719 323.109 103.062 324 103.531C325.25 104.172 326.281 105 327.094 106.016C327.906 107.031 328.469 108.055 328.781 109.086C329.094 110.117 329.25 111.187 329.25 112.297C329.25 115.328 328.312 117.766 326.438 119.609C324.562 121.453 322.109 122.375 319.078 122.375ZM343.09 122.375C340.527 122.375 337.637 122.125 334.418 121.625V115.906C338.184 116.469 341.074 116.75 343.09 116.75C345.871 116.75 347.262 115.266 347.262 112.297C347.262 111.469 347.059 110.687 346.652 109.953C346.262 109.203 345.707 108.687 344.988 108.406C344.535 108.234 343.91 108.094 343.113 107.984C342.316 107.875 341.496 107.719 340.652 107.516C339.824 107.297 339.027 106.961 338.262 106.508C335.324 104.758 333.855 101.992 333.855 98.2109C333.855 95.5078 334.715 93.2344 336.434 91.3906C338.168 89.5469 340.387 88.625 343.09 88.625C345.199 88.625 348.09 88.8203 351.762 89.2109V94.8594C347.965 94.4531 345.074 94.25 343.09 94.25C342.496 94.25 341.973 94.3828 341.52 94.6484C341.082 94.9141 340.746 95.2578 340.512 95.6797C340.277 96.1016 340.105 96.5312 339.996 96.9688C339.902 97.4062 339.855 97.8359 339.855 98.2578C339.855 100.102 340.48 101.305 341.73 101.867C342.137 102.055 343.059 102.266 344.496 102.5C345.949 102.719 347.121 103.062 348.012 103.531C349.262 104.172 350.293 105 351.105 106.016C351.918 107.031 352.48 108.055 352.793 109.086C353.105 110.117 353.262 111.187 353.262 112.297C353.262 115.328 352.324 117.766 350.449 119.609C348.574 121.453 346.121 122.375 343.09 122.375ZM389.191 89C394.223 89 397.887 90.8516 400.184 94.5547C401.074 95.9609 401.676 97.5547 401.988 99.3359C402.301 101.117 402.457 103.172 402.457 105.5C402.457 107.828 402.301 109.883 401.988 111.664C401.676 113.445 401.074 115.039 400.184 116.445C397.887 120.148 394.223 122 389.191 122H381.082V89H389.191ZM395.121 113.375C396.012 111.875 396.457 109.25 396.457 105.5C396.457 101.75 396.012 99.125 395.121 97.625C393.949 95.625 392.137 94.625 389.684 94.625H387.082V116.375H389.684C392.137 116.375 393.949 115.375 395.121 113.375ZM406.594 89H424.594V94.625H412.594V102.594H421.594V108.219H412.594V116.375H424.594V122H406.594V89ZM436.605 122H430.605V89H436.582L442.371 107.703H442.605V89H448.605V122H442.605L436.84 103.297H436.605V122ZM472.617 89V94.625H466.617V116.375H472.617V122H454.617V116.375H460.617V94.625H454.617V89H472.617ZM478.629 89H496.629V94.625H484.629V102.594H493.629V108.219H484.629V116.375H496.629V122H478.629V89ZM509.25 89C514.281 89 517.945 90.8516 520.242 94.5547C521.133 95.9609 521.734 97.5547 522.047 99.3359C522.359 101.117 522.516 103.172 522.516 105.5C522.516 107.828 522.359 109.883 522.047 111.664C521.734 113.445 521.133 115.039 520.242 116.445C517.945 120.148 514.281 122 509.25 122H501.141V89H509.25ZM515.18 113.375C516.07 111.875 516.516 109.25 516.516 105.5C516.516 101.75 516.07 99.125 515.18 97.625C514.008 95.625 512.195 94.625 509.742 94.625H507.141V116.375H509.742C512.195 116.375 514.008 115.375 515.18 113.375Z" fill="black"/>
</svg>
