<svg width="157" height="113" viewBox="0 0 157 113" fill="none" xmlns="http://www.w3.org/2000/svg">
<path d="M20 107.221L0 29.2209H118L131.5 82.2209L143 18.7209H30V9.22089H106.5C107.7 2.82089 113.333 0.554203 116 0.220861C122 0.054194 136.3 -0.179139 145.5 0.220861C154.7 0.620861 157 8.05419 157 11.7209L137.5 107.221H20Z" fill="#800909"/>
<path d="M34.0429 76.0828L22.7392 81.2097L18.2373 72.1851L30.0246 66.8799L21.213 57.1504L29.3865 50.6035L37.6291 59.7244L43.7602 49.0407L53.1498 53.678L46.5936 65.0784L59.2456 67.7264L56.7885 77.5076L44.6471 74.9299L46.0433 87.7709L35.4391 88.9238L34.0429 76.0828Z" fill="black"/>
<path d="M90.0429 71.0828L78.7392 76.2097L74.2373 67.1851L86.0246 61.8799L77.213 52.1504L85.3865 45.6035L93.6291 54.7244L99.7602 44.0407L109.15 48.678L102.594 60.0784L115.246 62.7264L112.789 72.5076L100.647 69.9299L102.043 82.7709L91.4391 83.9238L90.0429 71.0828Z" fill="black"/>
</svg>
