<svg width="325" height="391" viewBox="0 0 325 391" fill="none" xmlns="http://www.w3.org/2000/svg">
<rect x="2" y="2" width="321" height="387" rx="18" stroke="white" stroke-width="4"/>
<path d="M158 223.874C158 230.406 156.65 236.472 153.951 242.072C151.355 247.567 147.721 252.337 143.048 256.381C138.479 260.425 133.028 263.64 126.694 266.025C120.361 268.41 113.508 269.758 106.135 270.069V292H97.5691V270.069C91.1315 269.343 85.1611 267.684 79.6579 265.092C74.2586 262.396 69.4823 259.077 65.329 255.137C61.2795 251.093 57.9568 246.582 55.361 241.605C52.869 236.524 51.4153 231.236 51 225.74H64.3945C64.8098 234.139 68.0286 241.138 74.0509 246.738C80.0733 252.234 87.9127 255.656 97.5691 257.004V181.256C91.8583 179.908 86.5109 177.782 81.5269 174.879C76.5429 171.871 72.182 168.45 68.444 164.613C64.706 160.673 61.7467 156.473 59.5662 152.014C57.4896 147.555 56.4512 143.045 56.4512 138.482C56.4512 125.624 59.9816 115.307 67.0422 107.53C74.2067 99.6491 84.3823 94.983 97.5691 93.5312V73H106.135V93.3757C118.803 93.9979 131.107 98.0938 143.048 105.663L133.08 115.618C128.823 112.922 124.462 110.796 119.997 109.241C115.532 107.582 110.912 106.545 106.135 106.13V170.835C113.3 172.494 119.997 175.034 126.227 178.456C132.561 181.878 138.064 185.922 142.737 190.588C147.513 195.254 151.251 200.439 153.951 206.142C156.65 211.845 158 217.756 158 223.874ZM144.761 223.874C144.761 219.311 144.138 215.163 142.892 211.43C141.646 207.697 139.518 204.224 136.507 201.009C133.599 197.795 129.654 194.839 124.67 192.143C119.789 189.344 113.611 186.596 106.135 183.9V257.47C111.223 257.055 116.103 255.863 120.776 253.893C125.448 251.923 129.55 249.434 133.08 246.427C136.61 243.316 139.414 239.842 141.491 236.006C143.671 232.169 144.761 228.125 144.761 223.874ZM97.5691 106.597C93.7273 107.426 90.0932 108.722 86.6667 110.485C83.344 112.144 80.4367 114.322 77.9447 117.018C75.4527 119.61 73.4799 122.721 72.0262 126.35C70.5725 129.876 69.8457 133.92 69.8457 138.482C69.8457 151.133 79.0869 160.984 97.5691 168.035V106.597Z" fill="white"/>
<path d="M1 19C1 10.1634 8.16344 3 17 3H306C314.837 3 322 10.1634 322 19V48H1V19Z" fill="white"/>
<path d="M273.525 13.3809L296.525 35.3809" stroke="#480D0D" stroke-width="6"/>
<path d="M295.193 13L273.368 35.6693" stroke="#480D0D" stroke-width="6"/>
</svg>
