<svg width="325" height="391" viewBox="0 0 325 391" fill="none" xmlns="http://www.w3.org/2000/svg">
<rect x="2" y="2" width="321" height="387" rx="18" stroke="white" stroke-width="4"/>
<path d="M115.423 94.4844C124.794 95.0621 133.999 95.8874 143.039 96.9603V111.94C131.18 110.619 121.974 109.753 115.423 109.34V176.315C125.789 179.121 134.289 184.527 140.924 192.532C147.641 200.456 151 210.442 151 222.492C151 236.852 146.149 248.613 136.446 257.774C126.826 266.853 114.51 271.639 99.5 272.135V286H83.5773V271.763C73.7085 271.186 62.8446 269.989 50.9855 268.173V252.946C62.8446 254.844 73.7085 256.123 83.5773 256.784V185.724C72.9622 183.083 64.3788 177.883 57.8273 170.125C51.2758 162.367 48 152.587 48 140.785C48 137.071 48.3732 133.316 49.1196 129.519C49.9489 125.723 51.5246 121.637 53.8466 117.263C56.1687 112.806 59.1127 108.927 62.6787 105.626C66.3277 102.242 71.3035 99.4363 77.6063 97.2079C83.992 94.9796 91.2899 93.8654 99.5 93.8654V80H115.423V94.4844ZM99.5 108.721C93.529 108.721 88.2629 109.505 83.7017 111.073C79.2234 112.641 75.7403 114.581 73.2524 116.892C70.8474 119.12 68.8986 121.802 67.4058 124.939C65.913 127.992 64.9593 130.757 64.5447 133.233C64.13 135.709 63.9227 138.226 63.9227 140.785C63.9227 146.727 65.0423 151.885 67.2814 156.26C69.6035 160.634 72.6719 163.976 76.4867 166.287C80.3015 168.516 84.0334 170.166 87.6824 171.239C91.4143 172.312 95.3535 173.014 99.5 173.344V108.721ZM99.5 257.279C110.115 256.784 118.698 253.441 125.25 247.251C131.802 241.061 135.077 232.808 135.077 222.492C135.077 216.714 134.041 211.639 131.967 207.264C129.977 202.89 127.24 199.424 123.757 196.865C120.274 194.224 116.501 192.202 112.437 190.799C108.457 189.396 104.144 188.53 99.5 188.2V257.279Z" fill="white"/>
<path d="M1 19C1 10.1634 8.16344 3 17 3H306C314.837 3 322 10.1634 322 19V48H1V19Z" fill="white"/>
<path d="M273.525 13.3809L296.525 35.3809" stroke="#480D0D" stroke-width="6"/>
<path d="M295.193 13L273.368 35.6693" stroke="#480D0D" stroke-width="6"/>
</svg>
