<svg width="631" height="102" viewBox="0 0 631 102" fill="none" xmlns="http://www.w3.org/2000/svg">
<rect width="631" height="102" fill="white"/>
<rect x="11" y="6" width="610" height="89" fill="black"/>
<rect x="16" y="11" width="25" height="79" fill="white"/>
<rect x="45" y="11" width="25" height="79" fill="white"/>
<rect x="74" y="11" width="25" height="79" fill="white"/>
<rect x="103" y="11" width="25" height="79" fill="white"/>
<rect x="132" y="11" width="25" height="79" fill="white"/>
<rect x="161" y="11" width="25" height="79" fill="white"/>
<rect x="190" y="11" width="25" height="79" fill="white"/>
<rect x="219" y="11" width="25" height="79" fill="white"/>
<rect x="248" y="11" width="25" height="79" fill="white"/>
<rect x="277" y="11" width="25" height="79" fill="white"/>
<rect x="306" y="11" width="25" height="79" fill="white"/>
<rect x="335" y="11" width="25" height="79" fill="white"/>
<rect x="364" y="11" width="25" height="79" fill="white"/>
</svg>
