<svg width="681" height="585" viewBox="0 0 681 585" fill="none" xmlns="http://www.w3.org/2000/svg">
<rect x="2" y="2" width="677" height="581" rx="18" fill="black" stroke="white" stroke-width="4"/>
<path d="M3 18C3 9.16344 10.1634 2 19 2H664C671.732 2 678 8.26801 678 16V55H3V18Z" fill="white"/>
<path d="M290.69 277.715C295.066 288.934 301.836 294.543 311 294.543C316.284 294.543 320.659 292.756 324.127 289.183C327.677 285.609 330.401 280.831 332.3 274.848C333.374 271.607 334.158 266.828 334.653 260.512C335.149 254.114 335.438 248.338 335.52 243.186C335.603 238.033 335.644 230.305 335.644 220C335.644 202.465 335.438 190.291 335.025 183.476L290.69 277.715ZM311 145.457C305.716 145.457 301.299 147.244 297.749 150.817C294.282 154.391 291.599 159.169 289.7 165.152C288.626 168.393 287.842 173.213 287.347 179.612C286.851 185.928 286.562 191.662 286.48 196.814C286.397 201.967 286.356 209.695 286.356 220C286.356 237.535 286.562 249.709 286.975 256.524L331.31 162.285C326.934 151.066 320.164 145.457 311 145.457ZM275.83 157.05C282.6 139.017 294.323 130 311 130C327.677 130 339.4 139.017 346.17 157.05C347.656 161.122 348.771 166.731 349.514 173.878C350.257 181.025 350.67 187.548 350.752 193.449C350.917 199.266 351 208.116 351 220C351 231.884 350.917 240.776 350.752 246.676C350.67 252.493 350.257 258.975 349.514 266.122C348.771 273.269 347.656 278.878 346.17 282.95C339.4 300.983 327.677 310 311 310C294.323 310 282.6 300.983 275.83 282.95C274.344 278.878 273.229 273.269 272.486 266.122C271.743 258.975 271.289 252.493 271.124 246.676C271.041 240.776 271 231.884 271 220C271 208.116 271.041 199.266 271.124 193.449C271.289 187.548 271.743 181.025 272.486 173.878C273.229 166.731 274.344 161.122 275.83 157.05Z" fill="white"/>
<path d="M68.125 179.75C66.0417 188.833 65 202.25 65 220C65 237.75 66.0417 251.167 68.125 260.25C70.625 270.417 75.0833 278.75 81.5 285.25C88 291.75 96.5 295 107 295C117.5 295 125.958 291.75 132.375 285.25C138.875 278.75 143.375 270.417 145.875 260.25C147.958 251.167 149 237.75 149 220C149 202.25 147.958 188.833 145.875 179.75C143.375 169.583 138.875 161.25 132.375 154.75C125.958 148.25 117.5 145 107 145C96.5 145 88 148.25 81.5 154.75C75.0833 161.25 70.625 169.583 68.125 179.75ZM52.5 263.625C50.1667 254.375 49 239.833 49 220C49 200.167 50.1667 185.625 52.5 176.375C55.8333 162.875 62.125 151.792 71.375 143.125C80.625 134.375 92.5 130 107 130C121.5 130 133.375 134.375 142.625 143.125C151.875 151.792 158.167 162.875 161.5 176.375C163.833 185.625 165 200.167 165 220C165 239.833 163.833 254.375 161.5 263.625C158.167 277.125 151.875 288.25 142.625 297C133.375 305.667 121.5 310 107 310C92.5 310 80.625 305.667 71.375 297C62.125 288.25 55.8333 277.125 52.5 263.625Z" fill="white"/>
<path d="M471 35H508" stroke="black" stroke-width="6"/>
<path d="M630 18L653 40" stroke="black" stroke-width="6"/>
<path d="M651.668 17.6191L629.843 40.2884" stroke="black" stroke-width="6"/>
<path d="M553 22.56V18H577V22.56M553 22.56V37H577V22.56M553 22.56H577" stroke="black" stroke-width="6"/>
</svg>
