<svg width="681" height="585" viewBox="0 0 681 585" fill="none" xmlns="http://www.w3.org/2000/svg">
<rect x="2" y="2" width="677" height="581" rx="18" fill="black" stroke="white" stroke-width="4"/>
<path d="M2 21C2 10.5066 10.5066 2 21 2H664C671.732 2 678 8.26801 678 16V55H2V21Z" fill="white"/>
<path d="M68.125 316.75C66.0417 325.833 65 339.25 65 357C65 374.75 66.0417 388.167 68.125 397.25C70.625 407.417 75.0833 415.75 81.5 422.25C88 428.75 96.5 432 107 432C117.5 432 125.958 428.75 132.375 422.25C138.875 415.75 143.375 407.417 145.875 397.25C147.958 388.167 149 374.75 149 357C149 339.25 147.958 325.833 145.875 316.75C143.375 306.583 138.875 298.25 132.375 291.75C125.958 285.25 117.5 282 107 282C96.5 282 88 285.25 81.5 291.75C75.0833 298.25 70.625 306.583 68.125 316.75ZM52.5 400.625C50.1667 391.375 49 376.833 49 357C49 337.167 50.1667 322.625 52.5 313.375C55.8333 299.875 62.125 288.792 71.375 280.125C80.625 271.375 92.5 267 107 267C121.5 267 133.375 271.375 142.625 280.125C151.875 288.792 158.167 299.875 161.5 313.375C163.833 322.625 165 337.167 165 357C165 376.833 163.833 391.375 161.5 400.625C158.167 414.125 151.875 425.25 142.625 434C133.375 442.667 121.5 447 107 447C92.5 447 80.625 442.667 71.375 434C62.125 425.25 55.8333 414.125 52.5 400.625Z" fill="white"/>
<path d="M288 351.717C288 335.528 288.966 323.456 290.897 315.5C293.655 304.292 298.862 295.091 306.517 287.896C314.172 280.632 324 277 336 277C347.931 277 357.724 280.597 365.379 287.792C373.034 294.987 378.276 304.223 381.103 315.5C383.034 323.179 384 335.252 384 351.717C384 367.906 383.034 379.978 381.103 387.934C378.759 397.55 374.552 405.783 368.483 412.632C362.414 419.481 354.724 423.805 345.414 425.604C349.069 435.566 356.103 440.547 366.517 440.547C370.586 440.547 375.862 440.236 382.345 439.613V452.066C375.517 452.689 370 453 365.793 453C356.966 453 349.655 450.509 343.862 445.528C338.069 440.547 334.034 434.113 331.759 426.226C321 425.327 312.172 421.349 305.276 414.292C298.379 407.236 293.586 398.45 290.897 387.934C288.966 380.255 288 368.182 288 351.717ZM301.241 351.717C301.241 366.799 302.103 377.937 303.828 385.132C305.621 392.396 308.69 398.623 313.034 403.811C317.379 408.931 322.966 412.148 329.793 413.462C329.517 410.211 329.379 405.126 329.379 398.208V384.925H342.621V398.208C342.621 405.057 342.759 410.072 343.034 413.255C349.655 411.871 355.034 408.654 359.172 403.604C363.379 398.484 366.379 392.327 368.172 385.132C369.897 378.214 370.759 367.075 370.759 351.717C370.759 336.635 369.897 325.497 368.172 318.302C366.103 309.862 362.379 302.943 357 297.547C351.69 292.151 344.69 289.453 336 289.453C327.241 289.453 320.172 292.151 314.793 297.547C309.414 302.943 305.759 309.862 303.828 318.302C302.103 325.843 301.241 336.981 301.241 351.717Z" fill="white"/>
<path d="M470 34H507" stroke="black" stroke-width="6"/>
<path d="M629 17L652 39" stroke="black" stroke-width="6"/>
<path d="M650.668 16.6191L628.843 39.2884" stroke="black" stroke-width="6"/>
<path d="M552 21.56V17H576V21.56M552 21.56V36H576V21.56M552 21.56H576" stroke="black" stroke-width="6"/>
</svg>
