<svg width="1386" height="908" viewBox="0 0 1386 908" fill="none" xmlns="http://www.w3.org/2000/svg">
<rect x="2" y="2" width="1382" height="884" rx="18" fill="black" stroke="white" stroke-width="4"/>
<path d="M3 21C3 10.5066 11.5066 2 22 2H1368C1377.39 2 1385 9.61116 1385 19V55H3V21Z" fill="white"/>
<path d="M1168 36H1205" stroke="black" stroke-width="6"/>
<path d="M1334 17L1357 39" stroke="black" stroke-width="6"/>
<path d="M1355.67 16.6191L1333.84 39.2884" stroke="black" stroke-width="6"/>
<path d="M1257 21.56V17H1281V21.56M1257 21.56V36H1281V21.56M1257 21.56H1281" stroke="black" stroke-width="6"/>
<path d="M136.942 208.877C129.774 215.5 126.19 227.992 126.19 246.354C126.19 264.715 129.774 277.207 136.942 283.831C141.074 287.687 146.26 289.616 152.5 289.616C158.74 289.616 163.926 287.687 168.058 283.831C175.226 277.207 178.81 264.715 178.81 246.354C178.81 227.992 175.226 215.5 168.058 208.877C163.926 205.02 158.74 203.091 152.5 203.091C146.26 203.091 141.074 205.02 136.942 208.877ZM178.81 286.975H177.545C169.871 298.796 160.68 304.707 149.97 304.707C140.02 304.707 131.545 301.312 124.546 294.521C114.849 284.963 110 268.907 110 246.354C110 223.8 114.849 207.745 124.546 198.187C131.545 191.396 140.02 188 149.97 188C160.68 188 169.871 193.911 177.545 205.732H178.81V190.012H195V298.671C195 313.008 192.428 324.452 187.284 333.004C179.273 346.335 166.667 353 149.464 353C139.683 353 129.732 352.371 119.613 351.114V336.022C130.997 337.28 140.947 337.909 149.464 337.909C160.174 337.909 168.1 333.8 173.244 325.584C176.954 319.631 178.81 310.66 178.81 298.671V286.975Z" fill="white"/>
<path d="M336.981 286.975C344.717 263.393 353.39 231.735 362.999 192H379C378.593 193.534 377.616 197.371 376.068 203.508C374.603 209.566 373.666 213.483 373.259 215.259C372.852 216.955 371.956 220.549 370.572 226.041C369.187 231.452 368.17 235.288 367.518 237.549C366.948 239.73 366.012 243.324 364.709 248.331C363.406 253.257 362.306 257.134 361.411 259.961C360.596 262.787 359.497 266.543 358.113 271.227C356.728 275.911 355.425 280.07 354.204 283.704C353.064 287.339 351.72 291.417 350.173 295.94C348.707 300.462 347.201 304.945 345.654 309.387C343.699 314.878 342.152 318.997 341.012 321.743C339.953 324.57 338.406 327.76 336.37 331.313C334.335 334.867 332.136 337.572 329.774 339.43C322.12 345.81 310.312 349 294.352 349V334.463C305.996 334.463 313.977 332.807 318.293 329.496C320.166 328.123 321.876 326.023 323.423 323.197C325.051 320.37 326.314 317.745 327.209 315.323C328.187 312.9 329.978 307.973 332.584 300.543H326.232C317.438 284.714 310.068 267.996 304.123 250.39C298.26 232.784 292.886 213.321 288 192H304.001C312.47 230.604 323.056 262.262 335.76 286.975H336.981Z" fill="white"/>
<path d="M517.118 307.226V235.283H492.438V223.679H529.458V307.226C529.458 318.25 527.497 327.05 523.577 333.625C517.471 343.875 507.863 349 494.752 349C487.296 349 479.712 348.517 472 347.55V335.946C480.676 336.913 488.26 337.396 494.752 337.396C502.914 337.396 508.955 334.237 512.876 327.92C515.704 323.343 517.118 316.445 517.118 307.226ZM512.394 187.998C514.386 185.999 516.989 185 520.203 185C523.416 185 526.019 185.999 528.011 187.998C530.004 189.996 531 192.607 531 195.83C531 199.053 530.004 201.664 528.011 203.663C526.019 205.661 523.416 206.66 520.203 206.66C516.989 206.66 514.386 205.661 512.394 203.663C510.401 201.664 509.405 199.053 509.405 195.83C509.405 192.607 510.401 189.996 512.394 187.998Z" fill="white"/>
<path d="M667 195H730V280.172C730 286.92 729.836 292.269 729.508 296.219C729.344 300.169 728.195 305.353 726.062 311.772C724.094 318.355 721.141 324.28 717.203 329.547C705.719 345.182 688.984 353 667 353V323.375C677.828 323.375 686.031 319.672 691.609 312.266C693.742 309.468 695.301 306.094 696.285 302.144C697.434 298.358 698.09 295.067 698.254 292.269C698.418 289.635 698.5 285.603 698.5 280.172V254.25H667V195Z" fill="white"/>
<path d="M181.5 355.5C184 361.333 186.8 375 178 383" stroke="white" stroke-width="10"/>
<path d="M330.5 358C333 363.833 335.8 377.5 327 385.5" stroke="white" stroke-width="10"/>
<path d="M320 395C317 398.667 308.1 405.5 296.5 403.5" stroke="white" stroke-width="10"/>
<path d="M265 396.5C269.333 399 279 403.5 283 401.5" stroke="white" stroke-width="10"/>
<path d="M516.5 358C519 363.833 521.8 377.5 513 385.5" stroke="white" stroke-width="10"/>
<path d="M506 395C503 398.667 494.1 405.5 482.5 403.5" stroke="white" stroke-width="10"/>
<path d="M451 396.5C455.333 399 465 403.5 469 401.5" stroke="white" stroke-width="10"/>
<path d="M712.5 359C715 364.833 717.8 378.5 709 386.5" stroke="white" stroke-width="15"/>
<path d="M700 394C697 397.667 688.1 404.5 676.5 402.5" stroke="white" stroke-width="15"/>
<path d="M645 395.5C649.333 398 659 402.5 663 400.5" stroke="white" stroke-width="15"/>
<path d="M790 181.73L52.0001 179" stroke="#800909" stroke-width="7"/>
<path d="M790 358.73L52.0001 356" stroke="#800909" stroke-width="7"/>
<path d="M790 414.73L52.0001 412" stroke="#800909" stroke-width="7"/>
<path d="M171 392.5C168 396.167 159.1 403 147.5 401" stroke="white" stroke-width="10"/>
<path d="M116 394C120.333 396.5 130 401 134 399" stroke="white" stroke-width="10"/>
<rect x="1302" y="80" width="62" height="828" fill="#C4C4C4"/>
<path d="M1313 124L1332.47 98L1354 124" stroke="black" stroke-width="8"/>
<rect x="1304" y="140" width="58" height="345" fill="#5C5C5C"/>
</svg>
