<svg width="876" height="315" viewBox="0 0 876 315" fill="none" xmlns="http://www.w3.org/2000/svg">
<rect x="2" y="2" width="871" height="311" rx="18" fill="black" stroke="#800909" stroke-width="4"/>
<rect x="17" y="20" width="840" height="276" rx="12" fill="#800909"/>
<path d="M170.5 151.625V161.187H171.953C173.297 161.187 174.273 161.125 174.883 161C175.945 160.781 176.789 160.258 177.414 159.43C178.055 158.602 178.375 157.594 178.375 156.406C178.375 155.219 178.055 154.211 177.414 153.383C176.789 152.555 175.945 152.031 174.883 151.812C174.273 151.687 173.297 151.625 171.953 151.625H170.5ZM164.5 146H171.906C174.219 146 175.867 146.117 176.852 146.352C179.07 146.883 180.875 148.047 182.266 149.844C183.672 151.625 184.375 153.812 184.375 156.406C184.375 159 183.672 161.195 182.266 162.992C180.875 164.773 179.07 165.93 176.852 166.461C175.867 166.695 174.219 166.812 171.906 166.812H170.5V179H164.5V146ZM188.512 146H206.512V151.625H194.512V159.594H203.512V165.219H194.512V173.375H206.512V179H188.512V146ZM218.523 151.625V161.187H219.977C221.32 161.187 222.297 161.125 222.906 161C223.953 160.781 224.797 160.258 225.438 159.43C226.078 158.602 226.398 157.594 226.398 156.406C226.398 155.219 226.078 154.211 225.438 153.383C224.797 152.555 223.953 152.031 222.906 151.812C222.281 151.687 221.305 151.625 219.977 151.625H218.523ZM212.523 146H219.93C222.242 146 223.891 146.117 224.875 146.352C227.094 146.883 228.898 148.047 230.289 149.844C231.695 151.625 232.398 153.812 232.398 156.406C232.398 158.359 231.984 160.102 231.156 161.633C230.344 163.148 229.234 164.352 227.828 165.242L232.984 179H226.609L222.25 166.789C221.781 166.805 221.008 166.812 219.93 166.812H218.523V179H212.523V146ZM241.035 179H235.035V146H241.035L245.418 156.266H245.676L250.035 146H256.035V179H250.035V158H249.801L246.824 164H244.246L241.27 157.906H241.035V179ZM278.547 146V151.625H272.547V173.375H278.547V179H260.547V173.375H266.547V151.625H260.547V146H278.547ZM293.09 179.375C290.527 179.375 287.637 179.125 284.418 178.625V172.906C288.184 173.469 291.074 173.75 293.09 173.75C295.871 173.75 297.262 172.266 297.262 169.297C297.262 168.469 297.059 167.687 296.652 166.953C296.262 166.203 295.707 165.687 294.988 165.406C294.535 165.234 293.91 165.094 293.113 164.984C292.316 164.875 291.496 164.719 290.652 164.516C289.824 164.297 289.027 163.961 288.262 163.508C285.324 161.758 283.855 158.992 283.855 155.211C283.855 152.508 284.715 150.234 286.434 148.391C288.168 146.547 290.387 145.625 293.09 145.625C295.199 145.625 298.09 145.82 301.762 146.211V151.859C297.965 151.453 295.074 151.25 293.09 151.25C292.496 151.25 291.973 151.383 291.52 151.648C291.082 151.914 290.746 152.258 290.512 152.68C290.277 153.102 290.105 153.531 289.996 153.969C289.902 154.406 289.855 154.836 289.855 155.258C289.855 157.102 290.48 158.305 291.73 158.867C292.137 159.055 293.059 159.266 294.496 159.5C295.949 159.719 297.121 160.062 298.012 160.531C299.262 161.172 300.293 162 301.105 163.016C301.918 164.031 302.48 165.055 302.793 166.086C303.105 167.117 303.262 168.187 303.262 169.297C303.262 172.328 302.324 174.766 300.449 176.609C298.574 178.453 296.121 179.375 293.09 179.375ZM317.102 179.375C314.539 179.375 311.648 179.125 308.43 178.625V172.906C312.195 173.469 315.086 173.75 317.102 173.75C319.883 173.75 321.273 172.266 321.273 169.297C321.273 168.469 321.07 167.687 320.664 166.953C320.273 166.203 319.719 165.687 319 165.406C318.547 165.234 317.922 165.094 317.125 164.984C316.328 164.875 315.508 164.719 314.664 164.516C313.836 164.297 313.039 163.961 312.273 163.508C309.336 161.758 307.867 158.992 307.867 155.211C307.867 152.508 308.727 150.234 310.445 148.391C312.18 146.547 314.398 145.625 317.102 145.625C319.211 145.625 322.102 145.82 325.773 146.211V151.859C321.977 151.453 319.086 151.25 317.102 151.25C316.508 151.25 315.984 151.383 315.531 151.648C315.094 151.914 314.758 152.258 314.523 152.68C314.289 153.102 314.117 153.531 314.008 153.969C313.914 154.406 313.867 154.836 313.867 155.258C313.867 157.102 314.492 158.305 315.742 158.867C316.148 159.055 317.07 159.266 318.508 159.5C319.961 159.719 321.133 160.062 322.023 160.531C323.273 161.172 324.305 162 325.117 163.016C325.93 164.031 326.492 165.055 326.805 166.086C327.117 167.117 327.273 168.187 327.273 169.297C327.273 172.328 326.336 174.766 324.461 176.609C322.586 178.453 320.133 179.375 317.102 179.375ZM350.582 146V151.625H344.582V173.375H350.582V179H332.582V173.375H338.582V151.625H332.582V146H350.582ZM361.07 156.453C360.836 157.734 360.719 159.75 360.719 162.5C360.719 165.25 360.836 167.266 361.07 168.547C361.352 170.062 361.867 171.312 362.617 172.297C363.383 173.266 364.375 173.75 365.594 173.75C366.812 173.75 367.797 173.266 368.547 172.297C369.313 171.312 369.836 170.062 370.117 168.547C370.352 167.25 370.469 165.234 370.469 162.5C370.469 159.75 370.352 157.734 370.117 156.453C369.836 154.937 369.313 153.695 368.547 152.727C367.797 151.742 366.812 151.25 365.594 151.25C364.375 151.25 363.383 151.742 362.617 152.727C361.867 153.695 361.352 154.937 361.07 156.453ZM355.375 170.68C354.938 168.945 354.719 166.219 354.719 162.5C354.719 158.781 354.938 156.055 355.375 154.32C356 151.789 357.18 149.711 358.914 148.086C360.648 146.445 362.875 145.625 365.594 145.625C368.312 145.625 370.539 146.445 372.273 148.086C374.008 149.711 375.188 151.789 375.813 154.32C376.25 156.055 376.469 158.781 376.469 162.5C376.469 166.219 376.25 168.945 375.813 170.68C375.188 173.211 374.008 175.297 372.273 176.937C370.539 178.562 368.312 179.375 365.594 179.375C362.875 179.375 360.648 178.562 358.914 176.937C357.18 175.297 356 173.211 355.375 170.68ZM386.605 179H380.605V146H386.582L392.371 164.703H392.605V146H398.605V179H392.605L386.84 160.297H386.605V179ZM434.629 179H428.629V146H434.605L440.395 164.703H440.629V146H446.629V179H440.629L434.863 160.297H434.629V179ZM457.117 156.453C456.883 157.734 456.766 159.75 456.766 162.5C456.766 165.25 456.883 167.266 457.117 168.547C457.398 170.062 457.914 171.312 458.664 172.297C459.43 173.266 460.422 173.75 461.641 173.75C462.859 173.75 463.844 173.266 464.594 172.297C465.359 171.312 465.883 170.062 466.164 168.547C466.398 167.25 466.516 165.234 466.516 162.5C466.516 159.75 466.398 157.734 466.164 156.453C465.883 154.937 465.359 153.695 464.594 152.727C463.844 151.742 462.859 151.25 461.641 151.25C460.422 151.25 459.43 151.742 458.664 152.727C457.914 153.695 457.398 154.937 457.117 156.453ZM451.422 170.68C450.984 168.945 450.766 166.219 450.766 162.5C450.766 158.781 450.984 156.055 451.422 154.32C452.047 151.789 453.227 149.711 454.961 148.086C456.695 146.445 458.922 145.625 461.641 145.625C464.359 145.625 466.586 146.445 468.32 148.086C470.055 149.711 471.234 151.789 471.859 154.32C472.297 156.055 472.516 158.781 472.516 162.5C472.516 166.219 472.297 168.945 471.859 170.68C471.234 173.211 470.055 175.297 468.32 176.937C466.586 178.562 464.359 179.375 461.641 179.375C458.922 179.375 456.695 178.562 454.961 176.937C453.227 175.297 452.047 173.211 451.422 170.68ZM496.152 146V151.625H488.652V179H482.652V151.625H475.152V146H496.152ZM544.176 178.508C540.973 179.086 538.152 179.375 535.715 179.375C532.387 179.375 529.699 178.578 527.652 176.984C525.621 175.375 524.246 173.203 523.527 170.469C523.043 168.562 522.801 165.906 522.801 162.5C522.801 159.094 523.043 156.437 523.527 154.531C524.262 151.781 525.613 149.609 527.582 148.016C529.551 146.422 532.184 145.625 535.48 145.625C537.98 145.625 540.723 145.789 543.707 146.117V151.742C540.363 151.414 537.645 151.25 535.551 151.25C532.035 151.25 529.926 153.047 529.223 156.641C528.941 158.109 528.801 160.062 528.801 162.5C528.801 164.937 528.941 166.891 529.223 168.359C529.551 170.047 530.246 171.367 531.309 172.32C532.387 173.273 533.855 173.75 535.715 173.75C536.23 173.75 537.051 173.719 538.176 173.656V166.625H535.176V161H544.176V178.508ZM554.688 151.625V161.187H556.141C557.484 161.187 558.461 161.125 559.07 161C560.117 160.781 560.961 160.258 561.602 159.43C562.242 158.602 562.563 157.594 562.563 156.406C562.563 155.219 562.242 154.211 561.602 153.383C560.961 152.555 560.117 152.031 559.07 151.812C558.445 151.687 557.469 151.625 556.141 151.625H554.688ZM548.688 146H556.094C558.406 146 560.055 146.117 561.039 146.352C563.258 146.883 565.063 148.047 566.453 149.844C567.859 151.625 568.563 153.812 568.563 156.406C568.563 158.359 568.148 160.102 567.32 161.633C566.508 163.148 565.398 164.352 563.992 165.242L569.148 179H562.773L558.414 166.789C557.945 166.805 557.172 166.812 556.094 166.812H554.688V179H548.688V146ZM585.098 167C584.191 161.109 583.098 155.805 581.816 151.086H581.582C580.316 155.758 579.223 161.062 578.301 167H585.098ZM577.059 146H586.34C589.027 154.406 591.16 165.406 592.738 179H586.668C586.48 176.844 586.223 174.719 585.895 172.625H577.504C577.176 174.719 576.918 176.844 576.73 179H570.66C572.238 165.406 574.371 154.406 577.059 146ZM602.711 179H596.711V146H602.688L608.477 164.703H608.711V146H614.711V179H608.711L602.945 160.297H602.711V179ZM640.223 146V151.625H632.723V179H626.723V151.625H619.223V146H640.223ZM644.734 146H662.734V151.625H650.734V159.594H659.734V165.219H650.734V173.375H662.734V179H644.734V146ZM675.355 146C680.387 146 684.051 147.852 686.348 151.555C687.238 152.961 687.84 154.555 688.152 156.336C688.465 158.117 688.621 160.172 688.621 162.5C688.621 164.828 688.465 166.883 688.152 168.664C687.84 170.445 687.238 172.039 686.348 173.445C684.051 177.148 680.387 179 675.355 179H667.246V146H675.355ZM681.285 170.375C682.176 168.875 682.621 166.25 682.621 162.5C682.621 158.75 682.176 156.125 681.285 154.625C680.113 152.625 678.301 151.625 675.848 151.625H673.246V173.375H675.848C678.301 173.375 680.113 172.375 681.285 170.375Z" fill="black"/>
</svg>
