<svg width="781" height="442" viewBox="0 0 781 442" fill="none" xmlns="http://www.w3.org/2000/svg">
<rect x="3" y="3" width="775" height="436" fill="black" stroke="#800909" stroke-width="6"/>
<rect width="781" height="93" fill="#800909"/>
<rect y="349" width="781" height="93" fill="#800909"/>
<path d="M330.047 41H332.953L337.031 57.0781H337.266C338.563 49.7188 339.211 40.3594 339.211 29H342.211C342.211 40 341.125 51 338.953 62H336.047L331.617 44.75H331.383L326.953 62H324.047C321.875 51 320.789 40 320.789 29H323.789C323.789 40.2344 324.438 49.5937 325.734 57.0781H325.969L330.047 41ZM360.012 50H355.418C354.84 50 354.387 50.0156 354.059 50.0469C353.746 50.0781 353.348 50.1953 352.863 50.3984C352.379 50.5859 351.949 50.875 351.574 51.2656C350.699 52.1875 350.262 53.3984 350.262 54.8984C350.262 56.2266 350.637 57.3359 351.387 58.2266C352.152 59.1172 353.184 59.5625 354.48 59.5625C355.23 59.5625 355.895 59.4531 356.473 59.2344C357.066 59.0156 357.551 58.7422 357.926 58.4141C358.316 58.0859 358.645 57.6562 358.91 57.125C359.191 56.5937 359.395 56.1016 359.52 55.6484C359.66 55.1797 359.77 54.625 359.848 53.9844C359.926 53.3437 359.973 52.8203 359.988 52.4141C360.004 52.0078 360.012 51.5234 360.012 50.9609V50ZM356.262 37.625C357.605 37.625 358.785 37.8359 359.801 38.2578C360.816 38.6641 361.652 39.4453 362.309 40.6016C362.777 41.4297 363.012 42.7109 363.012 44.4453V62H360.012V59.1172H359.777C358.199 61.2891 356.246 62.375 353.918 62.375C352.043 62.375 350.465 61.6719 349.184 60.2656C347.902 58.8594 347.262 57.0859 347.262 54.9453C347.262 52.6953 347.949 50.8828 349.324 49.5078C349.824 49.0234 350.355 48.625 350.918 48.3125C351.48 48 352.066 47.7891 352.676 47.6797C353.301 47.5547 353.785 47.4844 354.129 47.4687C354.488 47.4375 354.934 47.4219 355.465 47.4219H360.012V44.5625C360.012 43.2031 359.871 42.2812 359.59 41.7969C359.324 41.3437 358.941 41.0078 358.441 40.7891C357.957 40.5547 357.23 40.4375 356.262 40.4375C354.387 40.4375 352.137 40.6016 349.512 40.9297V38.0703C352.09 37.7734 354.34 37.625 356.262 37.625ZM387.023 62.2578C385.539 62.3359 384.461 62.375 383.789 62.375C382.117 62.375 380.766 61.8437 379.734 60.7812C379.203 60.2344 378.805 59.6016 378.539 58.8828C378.273 58.1484 378.117 57.5703 378.07 57.1484C378.039 56.7109 378.023 56.1484 378.023 55.4609V29H381.023V55.4609C381.023 55.9453 381.031 56.3203 381.047 56.5859C381.063 56.8516 381.117 57.1719 381.211 57.5469C381.32 57.9219 381.477 58.25 381.68 58.5312C382.195 59.2187 382.977 59.5625 384.023 59.5625C385.086 59.5625 386.086 59.5234 387.023 59.4453V62.2578ZM411.035 62.2578C409.551 62.3359 408.473 62.375 407.801 62.375C406.129 62.375 404.777 61.8437 403.746 60.7812C403.215 60.2344 402.816 59.6016 402.551 58.8828C402.285 58.1484 402.129 57.5703 402.082 57.1484C402.051 56.7109 402.035 56.1484 402.035 55.4609V29H405.035V55.4609C405.035 55.9453 405.043 56.3203 405.059 56.5859C405.074 56.8516 405.129 57.1719 405.223 57.5469C405.332 57.9219 405.488 58.25 405.691 58.5312C406.207 59.2187 406.988 59.5625 408.035 59.5625C409.098 59.5625 410.098 59.5234 411.035 59.4453V62.2578ZM430.406 41.1875C429.625 40.6875 428.672 40.4375 427.547 40.4375C426.422 40.4375 425.461 40.6875 424.664 41.1875C423.883 41.6875 423.32 42.3828 422.977 43.2734C422.648 44.0234 422.438 45.3281 422.344 47.1875H432.75C432.656 45.3281 432.445 44.0234 432.117 43.2734C431.773 42.3828 431.203 41.6875 430.406 41.1875ZM422.859 38.9375C424.156 38.0625 425.719 37.625 427.547 37.625C429.375 37.625 430.93 38.0625 432.211 38.9375C433.508 39.8125 434.414 40.9453 434.93 42.3359C435.195 43.0078 435.391 43.7969 435.516 44.7031C435.656 45.6094 435.734 46.4141 435.75 47.1172C435.781 47.8047 435.797 48.7656 435.797 50H422.297C422.297 51.0625 422.305 51.8828 422.32 52.4609C422.336 53.0234 422.398 53.7031 422.508 54.5C422.633 55.2969 422.812 55.9609 423.047 56.4922C423.953 58.5391 425.609 59.5625 428.016 59.5625C429.828 59.5625 432.172 59.3984 435.047 59.0703V61.8828C432.203 62.2109 429.859 62.375 428.016 62.375C426.078 62.375 424.445 61.9219 423.117 61.0156C421.789 60.1094 420.828 58.9297 420.234 57.4766C419.828 56.4922 419.57 55.4375 419.461 54.3125C419.352 53.1875 419.297 51.75 419.297 50C419.297 48.7656 419.305 47.8047 419.32 47.1172C419.352 46.4141 419.43 45.6094 419.555 44.7031C419.695 43.7969 419.898 43.0078 420.164 42.3359C420.68 40.9453 421.578 39.8125 422.859 38.9375ZM459.059 62.0234C457.387 62.2578 455.887 62.375 454.559 62.375C453.309 62.375 452.168 62.1484 451.137 61.6953C450.121 61.2422 449.293 60.625 448.652 59.8437C448.152 59.25 447.777 58.5547 447.527 57.7578C447.277 56.9609 447.137 56.2969 447.105 55.7656C447.074 55.2344 447.059 54.5 447.059 53.5625V40.9531H441.059V38H447.059V32H450.059V38H459.059V40.9531H450.059V53.3281C450.059 54.1875 450.066 54.8281 450.082 55.25C450.113 55.6719 450.207 56.1562 450.363 56.7031C450.52 57.25 450.754 57.7187 451.066 58.1094C451.879 59.0781 453.121 59.5625 454.793 59.5625C455.902 59.5625 457.324 59.4453 459.059 59.2109V62.0234Z" fill="white"/>
<path d="M276 402H273C273 400.891 273.039 399.914 273.117 399.07C273.211 398.227 273.375 397.406 273.609 396.609C273.859 395.797 274.195 395.133 274.617 394.617C275.039 394.102 275.602 393.687 276.305 393.375C277.008 393.062 277.836 392.906 278.789 392.906C279.773 392.906 280.664 393.125 281.461 393.562C282.273 394 282.945 394.531 283.477 395.156C284.008 395.781 284.508 396.406 284.977 397.031C285.445 397.656 285.953 398.187 286.5 398.625C287.047 399.062 287.617 399.281 288.211 399.281C288.648 399.281 289.023 399.227 289.336 399.117C289.648 399.008 289.906 398.812 290.109 398.531C290.313 398.25 290.477 397.961 290.602 397.664C290.727 397.367 290.813 396.945 290.859 396.398C290.922 395.852 290.961 395.344 290.977 394.875C290.992 394.406 291 393.781 291 393H294C294 394.109 293.953 395.086 293.859 395.93C293.781 396.773 293.617 397.602 293.367 398.414C293.133 399.211 292.805 399.867 292.383 400.383C291.961 400.898 291.398 401.312 290.695 401.625C289.992 401.937 289.164 402.094 288.211 402.094C287.227 402.094 286.328 401.875 285.516 401.438C284.719 401 284.055 400.469 283.523 399.844C282.992 399.219 282.492 398.594 282.023 397.969C281.555 397.344 281.047 396.812 280.5 396.375C279.953 395.937 279.383 395.719 278.789 395.719C278.352 395.719 277.977 395.773 277.664 395.883C277.352 395.992 277.094 396.187 276.891 396.469C276.688 396.75 276.523 397.039 276.398 397.336C276.273 397.633 276.18 398.055 276.117 398.602C276.07 399.148 276.039 399.656 276.023 400.125C276.008 400.594 276 401.219 276 402ZM312.012 377.742C313.777 377.852 315.512 378.008 317.215 378.211V381.047C314.98 380.797 313.246 380.633 312.012 380.555V393.234C313.965 393.766 315.566 394.789 316.816 396.305C318.082 397.805 318.715 399.695 318.715 401.977C318.715 404.695 317.801 406.922 315.973 408.656C314.16 410.375 311.84 411.281 309.012 411.375V414H306.012V411.305C304.152 411.195 302.105 410.969 299.871 410.625V407.742C302.105 408.102 304.152 408.344 306.012 408.469V395.016C304.012 394.516 302.395 393.531 301.16 392.062C299.926 390.594 299.309 388.742 299.309 386.508C299.309 385.805 299.379 385.094 299.52 384.375C299.676 383.656 299.973 382.883 300.41 382.055C300.848 381.211 301.402 380.477 302.074 379.852C302.762 379.211 303.699 378.68 304.887 378.258C306.09 377.836 307.465 377.625 309.012 377.625V375H312.012V377.742ZM309.012 380.437C307.887 380.437 306.895 380.586 306.035 380.883C305.191 381.18 304.535 381.547 304.066 381.984C303.613 382.406 303.246 382.914 302.965 383.508C302.684 384.086 302.504 384.609 302.426 385.078C302.348 385.547 302.309 386.023 302.309 386.508C302.309 387.633 302.52 388.609 302.941 389.437C303.379 390.266 303.957 390.898 304.676 391.336C305.395 391.758 306.098 392.07 306.785 392.273C307.488 392.477 308.23 392.609 309.012 392.672V380.437ZM309.012 408.562C311.012 408.469 312.629 407.836 313.863 406.664C315.098 405.492 315.715 403.93 315.715 401.977C315.715 400.883 315.52 399.922 315.129 399.094C314.754 398.266 314.238 397.609 313.582 397.125C312.926 396.625 312.215 396.242 311.449 395.977C310.699 395.711 309.887 395.547 309.012 395.484V408.562ZM336.773 400.945C336.773 398.367 336.367 396.5 335.555 395.344C334.742 394.187 333.367 393.609 331.43 393.609C330.805 393.609 330.195 393.695 329.602 393.867L328.219 392.086L335.367 380.812H324.023V378H339.023V380.578L331.711 391.359L331.875 391.523C332.391 391.367 332.898 391.289 333.398 391.289C334.398 391.289 335.281 391.484 336.047 391.875C336.813 392.25 337.422 392.742 337.875 393.352C338.344 393.961 338.727 394.703 339.023 395.578C339.32 396.453 339.516 397.328 339.609 398.203C339.719 399.062 339.773 399.992 339.773 400.992C339.773 404.523 339.055 407.141 337.617 408.844C336.18 410.531 334.023 411.375 331.148 411.375C329.242 411.375 326.867 411.133 324.023 410.648V407.789C326.742 408.305 329.117 408.562 331.148 408.562C332.07 408.562 332.867 408.43 333.539 408.164C334.227 407.898 334.773 407.547 335.18 407.109C335.586 406.656 335.906 406.094 336.141 405.422C336.391 404.734 336.555 404.047 336.633 403.359C336.727 402.656 336.773 401.852 336.773 400.945ZM363.035 411H360.035V402H346.535V399.656L357.996 377.344L360.551 378.656L350.145 398.953V399.188H360.035V393H363.035V399.188H366.035V402H363.035V411ZM382.242 378.773C379.602 383.273 377.656 387.266 376.406 390.75L376.617 390.844C377.68 390.031 378.938 389.625 380.391 389.625C382.063 389.625 383.469 390.047 384.609 390.891C385.766 391.734 386.609 392.875 387.141 394.312C387.344 394.875 387.492 395.523 387.586 396.258C387.695 396.992 387.758 397.625 387.773 398.156C387.789 398.687 387.797 399.469 387.797 400.5C387.797 403.266 387.547 405.328 387.047 406.687C386.531 408.109 385.672 409.25 384.469 410.109C383.281 410.953 381.844 411.375 380.156 411.375C378.266 411.375 376.703 410.961 375.469 410.133C374.234 409.289 373.344 408.141 372.797 406.687C372.484 405.859 372.281 405 372.188 404.109C372.094 403.203 372.047 402 372.047 400.5C372.047 396.141 372.719 392.219 374.062 388.734C375.359 385.328 377.227 381.531 379.664 377.344L382.242 378.773ZM375.117 397.969C375.07 398.656 375.047 399.5 375.047 400.5C375.047 401.5 375.07 402.352 375.117 403.055C375.18 403.742 375.305 404.461 375.492 405.211C375.695 405.961 375.969 406.562 376.312 407.016C376.656 407.469 377.133 407.844 377.742 408.141C378.352 408.422 379.078 408.562 379.922 408.562C380.766 408.562 381.492 408.422 382.102 408.141C382.711 407.844 383.188 407.469 383.531 407.016C383.875 406.562 384.141 405.961 384.328 405.211C384.531 404.461 384.656 403.742 384.703 403.055C384.766 402.352 384.797 401.5 384.797 400.5C384.797 399.5 384.766 398.656 384.703 397.969C384.656 397.266 384.531 396.539 384.328 395.789C384.141 395.039 383.875 394.437 383.531 393.984C383.188 393.531 382.711 393.164 382.102 392.883C381.492 392.586 380.766 392.438 379.922 392.438C379.078 392.438 378.352 392.586 377.742 392.883C377.133 393.164 376.656 393.531 376.312 393.984C375.969 394.437 375.695 395.039 375.492 395.789C375.305 396.539 375.18 397.266 375.117 397.969ZM396.059 407.789C398.777 408.305 401.152 408.562 403.184 408.562C404.105 408.562 404.902 408.422 405.574 408.141C406.262 407.844 406.809 407.469 407.215 407.016C407.621 406.547 407.941 405.953 408.176 405.234C408.426 404.5 408.59 403.766 408.668 403.031C408.762 402.297 408.809 401.445 408.809 400.477C408.809 399.352 408.738 398.352 408.598 397.477C408.457 396.586 408.215 395.742 407.871 394.945C407.543 394.148 407.043 393.531 406.371 393.094C405.715 392.656 404.902 392.438 403.934 392.438C401.871 392.438 400.238 393.289 399.035 394.992L396.059 394.195V378H411.059V380.812H399.059V391.875H399.293C400.074 391.141 400.855 390.586 401.637 390.211C402.418 389.82 403.34 389.625 404.402 389.625C409.34 389.625 411.809 393.258 411.809 400.523C411.809 404.211 411.09 406.945 409.652 408.727C408.23 410.492 406.074 411.375 403.184 411.375C401.277 411.375 398.902 411.133 396.059 410.648V407.789ZM420.07 378.352C422.555 377.867 424.805 377.625 426.82 377.625C428.32 377.625 429.633 377.844 430.758 378.281C431.898 378.719 432.789 379.312 433.43 380.062C434.086 380.812 434.57 381.633 434.883 382.523C435.195 383.414 435.352 384.367 435.352 385.383C435.352 386.57 435.203 387.586 434.906 388.43C434.625 389.258 434.18 390.195 433.57 391.242L423.867 408.188H436.336V411H420.07V408.914L430.898 389.93C431.258 389.305 431.516 388.828 431.672 388.5C431.828 388.172 431.977 387.727 432.117 387.164C432.273 386.602 432.352 386.008 432.352 385.383C432.352 384.758 432.273 384.18 432.117 383.648C431.961 383.117 431.695 382.602 431.32 382.102C430.945 381.586 430.375 381.18 429.609 380.883C428.844 380.586 427.914 380.437 426.82 380.437C424.93 380.437 422.68 380.68 420.07 381.164V378.352ZM447.738 405.352C448.566 407.461 449.848 408.516 451.582 408.516C452.582 408.516 453.41 408.18 454.066 407.508C454.738 406.836 455.254 405.938 455.613 404.812C455.816 404.203 455.965 403.305 456.059 402.117C456.152 400.914 456.207 399.828 456.223 398.859C456.238 397.891 456.246 396.437 456.246 394.5C456.246 391.203 456.207 388.914 456.129 387.633L447.738 405.352ZM451.582 380.484C450.582 380.484 449.746 380.82 449.074 381.492C448.418 382.164 447.91 383.062 447.551 384.187C447.348 384.797 447.199 385.703 447.105 386.906C447.012 388.094 446.957 389.172 446.941 390.141C446.926 391.109 446.918 392.562 446.918 394.5C446.918 397.797 446.957 400.086 447.035 401.367L455.426 383.648C454.598 381.539 453.316 380.484 451.582 380.484ZM444.926 382.664C446.207 379.273 448.426 377.578 451.582 377.578C454.738 377.578 456.957 379.273 458.238 382.664C458.52 383.43 458.73 384.484 458.871 385.828C459.012 387.172 459.09 388.398 459.105 389.508C459.137 390.602 459.152 392.266 459.152 394.5C459.152 396.734 459.137 398.406 459.105 399.516C459.09 400.609 459.012 401.828 458.871 403.172C458.73 404.516 458.52 405.57 458.238 406.336C456.957 409.727 454.738 411.422 451.582 411.422C448.426 411.422 446.207 409.727 444.926 406.336C444.645 405.57 444.434 404.516 444.293 403.172C444.152 401.828 444.066 400.609 444.035 399.516C444.02 398.406 444.012 396.734 444.012 394.5C444.012 392.266 444.02 390.602 444.035 389.508C444.066 388.398 444.152 387.172 444.293 385.828C444.434 384.484 444.645 383.43 444.926 382.664ZM470.719 378.891C471.938 378.047 473.438 377.625 475.219 377.625C477 377.625 478.5 378.047 479.719 378.891C480.938 379.734 481.813 380.875 482.344 382.312C482.656 383.141 482.859 384 482.953 384.891C483.047 385.781 483.094 386.984 483.094 388.5C483.094 392.859 482.422 396.781 481.078 400.266C479.781 403.672 477.914 407.469 475.477 411.656L472.898 410.227C475.539 405.727 477.484 401.734 478.734 398.25L478.523 398.156C477.461 398.969 476.203 399.375 474.75 399.375C473.078 399.375 471.664 398.953 470.508 398.109C469.367 397.266 468.531 396.125 468 394.688C467.797 394.125 467.641 393.477 467.531 392.742C467.438 392.008 467.383 391.375 467.367 390.844C467.352 390.312 467.344 389.531 467.344 388.5C467.344 385.734 467.594 383.672 468.094 382.312C468.625 380.875 469.5 379.734 470.719 378.891ZM477.398 380.883C476.789 380.586 476.063 380.437 475.219 380.437C474.375 380.437 473.648 380.586 473.039 380.883C472.43 381.164 471.953 381.531 471.609 381.984C471.266 382.437 470.992 383.039 470.789 383.789C470.602 384.539 470.477 385.266 470.414 385.969C470.367 386.656 470.344 387.5 470.344 388.5C470.344 389.5 470.367 390.352 470.414 391.055C470.477 391.742 470.602 392.461 470.789 393.211C470.992 393.961 471.266 394.562 471.609 395.016C471.953 395.469 472.43 395.844 473.039 396.141C473.648 396.422 474.375 396.562 475.219 396.562C476.063 396.562 476.789 396.422 477.398 396.141C478.008 395.844 478.484 395.469 478.828 395.016C479.172 394.562 479.438 393.961 479.625 393.211C479.828 392.461 479.953 391.742 480 391.055C480.063 390.352 480.094 389.5 480.094 388.5C480.094 387.5 480.063 386.656 480 385.969C479.953 385.266 479.828 384.539 479.625 383.789C479.438 383.039 479.172 382.437 478.828 381.984C478.484 381.531 478.008 381.164 477.398 380.883ZM494.73 378.891C495.949 378.047 497.449 377.625 499.23 377.625C501.012 377.625 502.512 378.047 503.73 378.891C504.949 379.734 505.824 380.875 506.355 382.312C506.668 383.141 506.871 384 506.965 384.891C507.059 385.781 507.105 386.984 507.105 388.5C507.105 392.859 506.434 396.781 505.09 400.266C503.793 403.672 501.926 407.469 499.488 411.656L496.91 410.227C499.551 405.727 501.496 401.734 502.746 398.25L502.535 398.156C501.473 398.969 500.215 399.375 498.762 399.375C497.09 399.375 495.676 398.953 494.52 398.109C493.379 397.266 492.543 396.125 492.012 394.688C491.809 394.125 491.652 393.477 491.543 392.742C491.449 392.008 491.395 391.375 491.379 390.844C491.363 390.312 491.355 389.531 491.355 388.5C491.355 385.734 491.605 383.672 492.105 382.312C492.637 380.875 493.512 379.734 494.73 378.891ZM501.41 380.883C500.801 380.586 500.074 380.437 499.23 380.437C498.387 380.437 497.66 380.586 497.051 380.883C496.441 381.164 495.965 381.531 495.621 381.984C495.277 382.437 495.004 383.039 494.801 383.789C494.613 384.539 494.488 385.266 494.426 385.969C494.379 386.656 494.355 387.5 494.355 388.5C494.355 389.5 494.379 390.352 494.426 391.055C494.488 391.742 494.613 392.461 494.801 393.211C495.004 393.961 495.277 394.562 495.621 395.016C495.965 395.469 496.441 395.844 497.051 396.141C497.66 396.422 498.387 396.562 499.23 396.562C500.074 396.562 500.801 396.422 501.41 396.141C502.02 395.844 502.496 395.469 502.84 395.016C503.184 394.562 503.449 393.961 503.637 393.211C503.84 392.461 503.965 391.742 504.012 391.055C504.074 390.352 504.105 389.5 504.105 388.5C504.105 387.5 504.074 386.656 504.012 385.969C503.965 385.266 503.84 384.539 503.637 383.789C503.449 383.039 503.184 382.437 502.84 381.984C502.496 381.531 502.02 381.164 501.41 380.883Z" fill="white"/>
<path d="M195.375 311.125C196.938 311.125 197.958 311.062 198.438 310.938C199.563 310.667 200.458 310.083 201.125 309.187C201.813 308.271 202.156 307.146 202.156 305.812C202.156 304.5 201.813 303.385 201.125 302.469C200.438 301.552 199.542 300.969 198.438 300.719C197.771 300.573 196.75 300.5 195.375 300.5H194V311.125H195.375ZM205.156 314.25C207.302 314.875 208.969 316.156 210.156 318.094C211.365 320.01 211.969 322.312 211.969 325C211.969 327.917 211.198 330.417 209.656 332.5C208.135 334.562 206.156 335.896 203.719 336.5C202.385 336.833 200.167 337 197.062 337H186V293H195.375C198.062 293 199.979 293.135 201.125 293.406C203.688 294.01 205.781 295.333 207.406 297.375C209.031 299.417 209.844 301.917 209.844 304.875C209.844 309.271 208.281 312.292 205.156 313.938V314.25ZM194 318.625V329.5H197.094C198.969 329.5 200.219 329.417 200.844 329.25C201.885 328.979 202.719 328.385 203.344 327.469C203.969 326.531 204.281 325.396 204.281 324.062C204.281 322.729 203.969 321.594 203.344 320.656C202.719 319.719 201.885 319.125 200.844 318.875C200.135 318.708 198.885 318.625 197.094 318.625H194ZM244.016 293V300.5H234.016V337H226.016V300.5H216.016V293H244.016ZM261.406 337.5C257.99 337.5 254.135 337.167 249.844 336.5V328.875C254.865 329.625 258.719 330 261.406 330C265.115 330 266.969 328.021 266.969 324.062C266.969 322.958 266.698 321.917 266.156 320.937C265.635 319.937 264.896 319.25 263.938 318.875C263.333 318.646 262.5 318.458 261.438 318.312C260.375 318.167 259.281 317.958 258.156 317.688C257.052 317.396 255.99 316.948 254.969 316.344C251.052 314.01 249.094 310.323 249.094 305.281C249.094 301.677 250.24 298.646 252.531 296.187C254.844 293.729 257.802 292.5 261.406 292.5C264.219 292.5 268.073 292.76 272.969 293.281V300.812C267.906 300.271 264.052 300 261.406 300C260.615 300 259.917 300.177 259.312 300.531C258.729 300.885 258.281 301.344 257.969 301.906C257.656 302.469 257.427 303.042 257.281 303.625C257.156 304.208 257.094 304.781 257.094 305.344C257.094 307.802 257.927 309.406 259.594 310.156C260.135 310.406 261.365 310.687 263.281 311C265.219 311.292 266.781 311.75 267.969 312.375C269.635 313.229 271.01 314.333 272.094 315.687C273.177 317.042 273.927 318.406 274.344 319.781C274.76 321.156 274.969 322.583 274.969 324.062C274.969 328.104 273.719 331.354 271.219 333.812C268.719 336.271 265.448 337.5 261.406 337.5Z" fill="#800909"/>
<path d="M324.668 222.302C323.408 219.323 321.519 217.833 319 217.833C316.481 217.833 314.592 219.323 313.332 222.302C312.073 225.215 311.443 228.989 311.443 233.623C311.443 239.052 312.073 243.587 313.332 247.228C314.592 250.803 316.481 252.59 319 252.59C321.519 252.59 323.408 250.803 324.668 247.228C325.927 243.587 326.557 239.052 326.557 233.623C326.557 228.989 325.927 225.215 324.668 222.302ZM294.639 204.725C300.406 197.575 308.527 194 319 194C329.473 194 337.594 197.575 343.361 204.725C349.128 211.809 352.011 220.779 352.011 231.637C352.011 246.731 346.808 257.39 336.401 263.613V264.606C348.134 270.962 354 282.183 354 298.271C354 309.525 350.918 318.794 344.753 326.076C338.588 333.359 330.004 337 319 337C307.996 337 299.412 333.359 293.247 326.076C287.082 318.794 284 309.525 284 298.271C284 282.183 289.866 270.962 301.599 264.606V263.613C291.192 257.39 285.989 246.731 285.989 231.637C285.989 220.779 288.872 211.809 294.639 204.725ZM326.159 281.985C324.568 278.277 322.182 276.424 319 276.424C315.818 276.424 313.432 278.277 311.841 281.985C310.25 285.692 309.455 290.459 309.455 296.285C309.455 301.316 310.25 305.388 311.841 308.499C313.432 311.611 315.818 313.167 319 313.167C322.182 313.167 324.568 311.611 326.159 308.499C327.75 305.388 328.545 301.316 328.545 296.285C328.545 290.459 327.75 285.692 326.159 281.985Z" fill="#800909"/>
<path d="M427 138.981H471.53V118H506.518V141.525H512.243V118H544.05V141.525C550.412 141.737 570.5 144.5 580.31 170.772C589.65 195.781 561.754 216.778 552 222.5C557.937 221.864 586.417 222.399 587.944 253.426C589.471 284.453 559.318 298.144 544.05 301.111V324H514.152V301.111H506.518V324H471.53V301.111H427V253.426H452.446V187.302H427V138.981Z" stroke="#800909" stroke-width="20"/>
<path d="M493 199.017C515.633 202.743 521.291 194.982 521.291 190.635C526.194 179.832 504.473 179.304 493 180.391V199.017Z" fill="#800909" stroke="#800909" stroke-width="20"/>
<path d="M493 259.017C515.633 262.743 521.291 254.982 521.291 250.635C526.194 239.832 504.473 239.304 493 240.391V259.017Z" fill="#480D0D" stroke="#800909" stroke-width="20"/>
</svg>
