<svg width="313" height="499" viewBox="0 0 313 499" fill="none" xmlns="http://www.w3.org/2000/svg">
<rect y="177" width="313" height="322" rx="25" fill="#800909"/>
<path d="M82.1359 201.362H87.2603C85.1855 216.525 81.3989 236.58 82.1359 201.362H22.7603C19.5936 155.862 24.6603 58.1622 70.2603 31.3622C99.4271 7.69555 175.061 -25.4378 244.261 31.3622C265.594 44.6955 304.461 97.3621 289.261 201.362H231.261C235.261 154.862 226.761 62.1623 160.761 63.3623C78.2607 64.8623 83.7607 143.862 82.2607 196.362C82.2099 198.14 82.1685 199.805 82.1359 201.362Z" fill="#800909"/>
<circle cx="157" cy="338" r="56" fill="black"/>
<path d="M182.5 313L131 362" stroke="#800909" stroke-width="10"/>
</svg>
