<svg width="129" height="109" viewBox="0 0 129 109" fill="none" xmlns="http://www.w3.org/2000/svg">
<path d="M0 102.5V14C1.2 12 3.83333 11.5 5 11.5H77.5C78.3 3.9 83.8333 0.666667 86.5 0H121C125.8 0 128 5.66667 128.5 8.5V103C128.9 107.4 125.333 108.833 123.5 109H7C1.8 109 0.166667 104.667 0 102.5Z" fill="#800909"/>
<path d="M53.7917 77.25C55.1528 75.9167 56.8889 75.25 59 75.25C61.1111 75.25 62.8333 75.9167 64.1667 77.25C65.5278 78.5833 66.2083 80.3194 66.2083 82.4583C66.2083 84.5972 65.5278 86.3333 64.1667 87.6667C62.8333 89 61.1111 89.6667 59 89.6667C56.8889 89.6667 55.1528 89 53.7917 87.6667C52.4583 86.3333 51.7917 84.5972 51.7917 82.4583C51.7917 80.3194 52.4583 78.5833 53.7917 77.25ZM53.6667 67.6667C53.6667 66.3333 53.6944 65.3056 53.75 64.5833C53.8056 63.8611 53.9444 62.9306 54.1667 61.7917C54.4167 60.625 54.8333 59.5139 55.4167 58.4583C56.0278 57.4028 56.8194 56.3194 57.7917 55.2083C60.7083 51.9306 62.1667 48.3056 62.1667 44.3333C62.1667 41.2222 60.1111 39.6667 56 39.6667C53.7222 39.6667 50.5833 40.1806 46.5833 41.2083V31.2083C50.9722 30.1806 54.5278 29.6667 57.25 29.6667C62.25 29.6667 66.0972 30.8889 68.7917 33.3333C71.4861 35.7778 72.8333 39.1667 72.8333 43.5C72.8333 46.6944 72.3889 49.4306 71.5 51.7083C70.6389 53.9583 69.1806 56.375 67.125 58.9583C65.2639 61.3194 64.3333 64.2222 64.3333 67.6667H53.6667Z" fill="black"/>
</svg>
