<svg width="129" height="109" viewBox="0 0 129 109" fill="none" xmlns="http://www.w3.org/2000/svg">
<path d="M0 102.5V14C1.2 12 3.83333 11.5 5 11.5H77.5C78.3 3.9 83.8333 0.666667 86.5 0H121C125.8 0 128 5.66667 128.5 8.5V103C128.9 107.4 125.333 108.833 123.5 109H7C1.8 109 0.166667 104.667 0 102.5Z" fill="#800909"/>
<path d="M27.197 45.6102L33.6947 37.5271L60.9136 58.1224L61.7693 65.9926L39.6126 91.9564L31.5296 85.4587L50.5527 63.4401L50.5077 63.0259L27.197 45.6102ZM82.6536 94.8208L72.4491 92.3259L92.5152 18.2228L102.72 20.7177L82.6536 94.8208Z" fill="black"/>
</svg>
