<svg width="129" height="109" viewBox="0 0 129 109" fill="none" xmlns="http://www.w3.org/2000/svg">
<path d="M0 102.5V14C1.2 12 3.83333 11.5 5 11.5H77.5C78.3 3.9 83.8333 0.666667 86.5 0H121C125.8 0 128 5.66667 128.5 8.5V103C128.9 107.4 125.333 108.833 123.5 109H7C1.8 109 0.166667 104.667 0 102.5Z" fill="#800909"/>
<path d="M58.0509 25.7362L63.353 25.1597L63.8799 30.0062C65.7974 29.9095 69.1688 29.8223 73.9942 29.7447L75.0797 39.7275C69.834 39.795 66.461 39.8683 64.9608 39.9476L66.6092 55.1082C69.2921 55.6268 71.6439 56.6984 73.6647 58.3228C75.71 59.9166 77.2502 61.7469 78.2853 63.8138C79.3449 65.8501 80.0009 68.0281 80.2531 70.3478C80.8205 75.567 79.7059 79.9632 76.9091 83.5365C74.1122 87.1097 70.1561 89.2722 65.0408 90.024L65.5452 94.6633L60.2431 95.2398L59.7252 90.4762C56.5314 90.6558 52.8703 90.6487 48.7418 90.455L47.6429 80.3479C52.7775 80.544 56.4431 80.5925 58.6397 80.4934L56.8743 64.2558C53.118 63.6303 50.0205 61.9972 47.5819 59.3565C45.1433 56.7157 43.6988 53.3242 43.2484 49.1819C42.708 44.2112 43.8407 39.9807 46.6465 36.4903C49.4769 32.9693 53.4465 30.931 58.5553 30.3756L58.0509 25.7362ZM59.6362 40.317C57.5651 40.5422 56.0142 41.3115 54.9834 42.6251C53.9803 43.9356 53.6064 45.7645 53.8616 48.1118C54.0868 50.1829 54.7502 51.7873 55.8518 52.9249C56.9811 54.0595 58.7605 54.6204 61.19 54.6077L59.6362 40.317ZM62.2844 64.6734L63.9553 80.0412C68.2855 79.263 70.1833 76.4162 69.6489 71.5007C69.4447 69.6229 68.7261 68.0245 67.493 66.7057C66.2845 65.3562 64.5483 64.6787 62.2844 64.6734Z" fill="black"/>
</svg>
