<svg width="157" height="115" viewBox="0 0 157 115" fill="none" xmlns="http://www.w3.org/2000/svg">
<path d="M20 107.221L0 29.2209H118L131.5 82.2209L143 18.7209H30V9.22089H106.5C107.7 2.82089 113.333 0.554203 116 0.220861C122 0.054194 136.3 -0.179139 145.5 0.220861C154.7 0.620861 157 8.05419 157 11.7209L137.5 107.221H20Z" fill="#810909"/>
<path d="M58.0701 63.4154C60.1525 63.3547 61.5106 63.2318 62.1444 63.0466C63.6332 62.6419 64.8045 61.8297 65.6582 60.6099C66.5389 59.3615 66.9534 57.8488 66.9016 56.0718C66.8507 54.3225 66.3493 52.8504 65.3974 51.6554C64.4455 50.4604 63.229 49.7177 61.7477 49.4274C60.8535 49.2589 59.4901 49.2013 57.6576 49.2547L55.825 49.3081L56.2375 63.4687L58.0701 63.4154ZM71.2275 67.2005C74.1117 67.9502 76.3827 69.5931 78.0406 72.1293C79.7254 74.6368 80.62 77.6815 80.7243 81.2633C80.8376 85.1506 79.9073 88.5124 77.9335 91.3489C75.9866 94.1567 73.4006 96.0106 70.1754 96.9104C68.4114 97.4064 65.4608 97.7147 61.3236 97.8352L46.5799 98.2647L44.8717 39.6229L57.3664 39.2589C60.9482 39.1546 63.5079 39.2607 65.0456 39.5772C68.4843 40.2829 71.3261 41.9647 73.5711 44.6227C75.8161 47.2807 76.9961 50.5811 77.1109 54.5239C77.2816 60.3825 75.3164 64.4692 71.2154 66.784L71.2275 67.2005ZM56.5287 73.4645L56.9509 87.9584L61.0741 87.8383C63.573 87.7655 65.2358 87.6059 66.0623 87.3595C67.4401 86.9581 68.5277 86.1344 69.325 84.8884C70.1216 83.6147 70.494 82.0893 70.4423 80.3123C70.3905 78.5353 69.9299 77.0342 69.0606 75.8089C68.1912 74.5837 67.0575 73.8248 65.6595 73.532C64.709 73.3374 63.0398 73.2748 60.6519 73.3444L56.5287 73.4645Z" fill="black"/>
</svg>
